<svg width="46" height="46" viewBox="0 0 46 46" fill="none" xmlns="http://www.w3.org/2000/svg">
<rect x="1" y="1" width="44" height="44" rx="22" stroke="black" stroke-width="2"/>
<path d="M37.7294 37.8723C45.9252 29.6764 45.9252 16.3883 37.7294 8.19244C29.5335 -0.00342238 16.2454 -0.00342171 8.04954 8.19244C-0.146319 16.3883 -0.146319 29.6764 8.04954 37.8723C16.2454 46.0681 29.5335 46.0681 37.7294 37.8723Z" fill="#ACE2DF"/>
<mask id="mask0_341_928" style="mask-type:luminance" maskUnits="userSpaceOnUse" x="1" y="2" width="43" height="43">
<path d="M37.7294 37.8723C45.9252 29.6764 45.9252 16.3883 37.7294 8.19244C29.5335 -0.00342238 16.2454 -0.00342171 8.04954 8.19244C-0.146319 16.3883 -0.146319 29.6764 8.04954 37.8723C16.2454 46.0681 29.5335 46.0681 37.7294 37.8723Z" fill="white"/>
</mask>
<g mask="url(#mask0_341_928)">
<path d="M8.56827 19.2971C9.3313 20.335 10.7848 21.0232 12.0426 21.1244C15.3213 21.3861 18.5779 21.6477 21.8697 21.6323C26.2896 21.6125 30.7139 21.2167 35.0437 20.3064C36.783 19.9391 38.883 18.655 38.9666 16.8804C39.0128 15.9063 38.3553 15.0069 37.5263 14.4967C36.6951 13.9866 35.7121 13.7997 34.749 13.6479C29.8453 12.8783 18.2019 12.8497 13.2762 13.6787C11.5017 13.9778 9.35549 14.7474 8.42094 16.4054C7.80083 17.5027 7.98334 18.5032 8.56827 19.2993V19.2971Z" fill="#FFB300"/>
<path d="M33.8606 25.8939C32.9788 24.6405 32.1476 23.6048 31.9607 21.5774C31.6925 18.6352 30.7227 15.5017 28.3149 13.6062C26.4831 12.1637 24.0797 11.7283 21.8192 12.1922C20.2073 12.5243 18.4899 13.2697 17.4212 14.5539C15.7456 16.5616 15.7698 19.4334 14.2723 21.5488C13.5445 22.5779 12.5 23.3497 11.7611 24.37C11.4225 24.8362 11.1542 25.353 10.9607 25.8961H33.8606V25.8939Z" fill="black"/>
<path d="M46.586 43.9934C46.586 40.3981 46.0076 35.4615 43.9428 32.6644C39.2415 26.294 31.8684 26.6678 24.4821 26.8855C18.6966 27.0549 12.7595 27.3649 7.45559 29.6804C2.27266 31.9409 -1.10713 38.4081 -1.77781 43.9934H46.586Z" fill="#F55540"/>
<mask id="mask1_341_928" style="mask-type:luminance" maskUnits="userSpaceOnUse" x="-2" y="26" width="49" height="18">
<path d="M46.586 43.9934C46.586 40.3981 46.0076 35.4615 43.9428 32.6644C39.2415 26.294 31.8684 26.6678 24.4821 26.8855C18.6966 27.0549 12.7595 27.3649 7.45559 29.6804C2.27266 31.9409 -1.10713 38.4081 -1.77781 43.9934H46.586Z" fill="white"/>
</mask>
<g mask="url(#mask1_341_928)">
<path d="M10.4792 31.7013C11.0201 33.9002 12.2867 36.3696 13.9733 37.4999C15.2553 38.3575 16.9507 38.5642 18.402 38.0365C19.9522 37.4735 21.243 35.7188 22.1864 34.428C22.602 35.2966 23.022 36.1761 23.6289 36.9216C24.2358 37.6692 25.0582 38.2849 26.006 38.4543C27.1494 38.661 28.3215 38.1948 29.2802 37.5373C30.7975 36.4972 31.9431 34.9733 32.7084 33.3021C33.4736 31.6309 33.876 29.8102 34.0915 27.985C34.1553 27.4397 34.1971 26.857 33.9464 26.3688C33.5 25.5002 32.3631 25.3045 31.389 25.2298C27.5342 24.9307 23.6619 24.8779 19.8005 25.0758C18.1843 25.1572 16.6538 25.4892 15.0618 25.6739C13.7424 25.8279 12.3812 25.8367 11.3258 26.8042C10.4352 27.62 10.1163 28.9196 10.2131 30.1246C10.2527 30.6172 10.3428 31.1515 10.477 31.7035L10.4792 31.7013Z" fill="white"/>
<path d="M22.2216 34.6765C22.2589 34.008 22.2985 33.3395 22.3359 32.6688" stroke="black" stroke-width="0.439791" stroke-linecap="round" stroke-linejoin="round"/>
<path d="M22.0874 34.6808C22.138 34.6303 22.1666 34.5731 22.1688 34.5071C22.1798 34.0497 20.7285 33.3549 20.3854 33.2119C19.9347 33.0228 19.3563 32.9217 19.0001 33.2559C18.6944 33.5418 18.6966 34.0585 18.9297 34.406C19.1628 34.7534 19.5762 34.9447 19.9874 35.0129C20.5174 35.0986 21.5135 35.1052 21.9643 34.7754C22.6833 34.2498 23 33.2229 23.8268 32.6732C24.2534 32.3895 24.8537 32.1806 25.2539 32.5039C25.619 32.7985 25.5838 33.4033 25.2913 33.7683C24.9988 34.1333 24.5327 34.3114 24.0797 34.428C23.4068 34.6017 22.7097 34.6808 22.0149 34.6633" stroke="black" stroke-width="0.439791" stroke-linecap="round" stroke-linejoin="round"/>
<path d="M21.0605 38.6566C21.4431 37.3307 21.8258 36.0025 22.2084 34.6765C22.4898 35.8793 22.9252 37.0448 23.497 38.1399" stroke="black" stroke-width="0.439791" stroke-linecap="round" stroke-linejoin="round"/>
<path d="M22.2699 31.3978C21.3838 31.3978 21.3816 32.7766 22.2699 32.7766C23.1583 32.7766 23.1583 31.3978 22.2699 31.3978Z" fill="black"/>
<path d="M22.3975 29.2627C21.5113 29.2627 21.5091 30.6414 22.3975 30.6414C23.2859 30.6414 23.2859 29.2627 22.3975 29.2627Z" fill="black"/>
<path d="M25.1967 37.1877C27.3583 37.6011 29.0977 36.6665 30.7953 34.439C32.7743 31.842 32.9964 28.8514 32.9964 26.791" stroke="black" stroke-width="0.439791" stroke-linecap="round" stroke-linejoin="round"/>
<path d="M19.2398 36.7017C17.9072 37.7132 15.9414 37.6099 14.5186 36.7259C13.0981 35.8419 12.1767 34.3092 11.6974 32.7062C11.218 31.1032 11.1322 29.4122 11.0487 27.741" stroke="black" stroke-width="0.439791" stroke-linecap="round" stroke-linejoin="round"/>
</g>
<path d="M31.5055 19.7413C31.2747 19.6951 31.046 19.6929 30.8239 19.7237C31.0284 18.6462 31.1625 17.9843 31.2725 16.8936L17.4015 15.8711C16.6648 18.0942 15.9172 20.3658 15.926 22.7076C15.9348 25.0495 16.8319 27.5168 18.7714 28.8295C20.6999 30.1335 23.3628 30.0389 25.41 28.9373C27.4595 27.8334 28.9306 25.8521 29.8124 23.6994C29.8321 23.6532 29.8475 23.607 29.8673 23.5608C30.8085 23.8357 32.0971 23.3673 32.6116 22.5229C33.2031 21.5576 32.5698 19.9546 31.5033 19.7457L31.5055 19.7413Z" fill="#F2A191"/>
<path d="M23.1913 18.6791C24.4777 19.3585 25.9158 19.585 27.255 20.126C27.8817 20.3789 28.515 20.6339 29.1834 20.7263C29.8519 20.8186 30.571 20.7307 31.1251 20.3459C32.1344 19.6444 32.0751 18.0634 31.6881 17.043C31.0526 15.3652 30.0256 13.8106 28.5985 12.7243C27.1714 11.638 25.3265 11.0531 23.5519 11.3192C21.7774 11.5852 19.7411 12.9112 19.3585 14.7825C18.9913 16.5703 20.9506 17.2651 22.1292 18.048C22.4722 18.2767 22.8285 18.4878 23.1935 18.6791H23.1913Z" fill="black"/>
<path d="M22.5734 15.1586C22.569 16.036 22.2282 16.8826 21.7642 17.628C21.0737 18.7407 20.0798 19.6466 18.9385 20.2799C18.3668 20.5988 17.7555 20.8495 17.1266 21.0276C16.5681 21.1859 15.8534 21.5465 15.2839 21.5619C14.9628 21.5707 14.6154 21.419 14.4944 21.1221C14.3999 20.889 14.4571 20.6252 14.5186 20.3811C14.9122 18.7912 15.3146 17.1772 16.1327 15.7589C16.8451 14.5231 18.0699 13.2587 19.5037 12.9266C21.0715 12.5638 22.5822 13.505 22.5756 15.1564L22.5734 15.1586Z" fill="black"/>
<path d="M17.3751 20.8802C17.1794 19.9743 16.5021 19.3124 15.6797 19.1585C14.8375 19.0001 13.8809 19.3168 13.6039 20.3041C13.373 21.1243 13.7424 22.1644 14.4021 22.5976C15.031 23.011 16.0821 22.9912 16.6912 22.5163C16.9155 22.3404 17.065 22.0985 17.1046 21.8192C17.3267 21.6103 17.4608 21.2871 17.3751 20.8802Z" fill="#F4947D"/>
<path d="M23.0791 20.4514C22.9582 20.7769 22.6943 21.0297 22.4217 21.2452C22.149 21.4607 21.8521 21.6542 21.6256 21.9181C21.3991 22.182 21.2452 22.5382 21.3222 22.8769C21.3991 23.2155 21.7708 23.4926 22.1006 23.3782" stroke="black" stroke-width="0.439791" stroke-linecap="round" stroke-linejoin="round"/>
<path d="M19.5652 24.8559C19.9786 25.5596 20.7922 26.0104 21.6081 25.9862C22.4239 25.962 23.2089 25.465 23.5805 24.7394" stroke="black" stroke-width="0.439791" stroke-linecap="round" stroke-linejoin="round"/>
<path d="M26.0126 20.2448C24.8977 20.2448 24.8977 21.9753 26.0126 21.9753C27.1274 21.9753 27.1274 20.2448 26.0126 20.2448Z" fill="black"/>
<path d="M18.7604 19.8181C17.6455 19.8181 17.6455 21.5487 18.7604 21.5487C19.8753 21.5487 19.8753 19.8181 18.7604 19.8181Z" fill="black"/>
<path d="M25.9906 20.6032C25.9906 20.8011 25.83 20.9616 25.6321 20.9616C25.4342 20.9616 25.2737 20.8011 25.2737 20.6032C25.2737 20.4053 25.4342 20.2448 25.6321 20.2448C25.83 20.2448 25.9906 20.4053 25.9906 20.6032Z" fill="white"/>
<path d="M18.4789 20.4514C18.4789 20.6494 18.3184 20.8099 18.1205 20.8099C17.9226 20.8099 17.7621 20.6494 17.7621 20.4514C17.7621 20.2535 17.9226 20.093 18.1205 20.093C18.3184 20.093 18.4789 20.2535 18.4789 20.4514Z" fill="white"/>
<path d="M15.5345 13.9733C16.6538 12.0229 18.2898 10.3319 20.3261 9.37313C22.3601 8.41659 24.8075 8.25166 26.8636 9.15763C28.9218 10.0658 30.4962 12.1064 30.6216 14.3516" fill="#FFB300"/>
<path d="M25.5112 22.7537C25.2891 22.8351 25.0208 22.9626 24.9461 23.1583C24.8229 23.4772 25.1682 23.8092 25.443 23.9082C25.918 24.0797 26.3534 23.9456 26.78 23.7367C27.1274 23.5673 27.8245 23.1803 27.3561 22.7339C26.9559 22.3535 26.1445 22.5448 25.6849 22.6965C25.6343 22.7119 25.575 22.7317 25.5112 22.7559V22.7537Z" fill="#ED7153"/>
<path d="M17.839 22.2194C17.6104 22.1557 17.3201 22.1007 17.1442 22.215C16.8561 22.402 16.9419 22.8725 17.1068 23.1122C17.3905 23.53 17.8215 23.6752 18.2898 23.7565C18.6702 23.8225 19.4619 23.9192 19.3453 23.2837C19.2464 22.7406 18.4745 22.4195 18.015 22.27C17.9644 22.2546 17.905 22.2348 17.8412 22.2172L17.839 22.2194Z" fill="#ED7153"/>
<mask id="mask2_341_928" style="mask-type:luminance" maskUnits="userSpaceOnUse" x="15" y="8" width="16" height="7">
<path d="M15.5345 13.9733C16.6538 12.0229 18.2898 10.3319 20.3261 9.37313C22.3601 8.41659 24.8075 8.25166 26.8636 9.15763C28.9218 10.0658 30.4962 12.1064 30.6216 14.3516" fill="white"/>
</mask>
<g mask="url(#mask2_341_928)">
<path d="M31.0657 11.9526C29.0933 11.8822 27.1208 11.8118 25.1484 11.7415C23.1935 11.6733 21.2342 11.6139 19.2816 11.7305C18.1821 11.7964 17.087 11.9196 16.0029 12.1175C15.4554 12.2164 15.6885 13.052 16.2338 12.9531C20.0248 12.2626 23.9324 12.5639 27.7585 12.7002C28.8624 12.7398 29.9641 12.7794 31.0679 12.8189C31.6243 12.8387 31.6243 11.9723 31.0679 11.9526H31.0657Z" fill="#F55540"/>
</g>
<path d="M34.4961 13.6831C30.5644 13.2719 26.5887 13.0168 22.635 13.0146C20.5855 13.0146 18.5339 13.0322 16.4911 13.2104C15.4598 13.3005 14.3537 13.3643 13.351 13.6304C12.7375 13.7931 12.014 13.9844 11.5171 14.3956C11.2158 14.6441 10.809 15.2312 10.9805 15.6512C11.1103 15.9678 11.6864 16.2207 12.0052 16.1372C15.6071 15.1938 19.3145 15.174 23.0132 15.1806C26.8328 15.185 30.6501 15.4093 34.4697 15.4159C35.5824 15.4159 38.2563 14.0767 34.4939 13.6853L34.4961 13.6831Z" fill="#FFB300"/>
<path d="M30.9712 13.4522C25.6079 12.8519 20.1809 12.8035 14.8067 13.3093" stroke="black" stroke-width="0.439791" stroke-linecap="round" stroke-linejoin="round"/>
<path d="M31.7914 21.0892C31.1229 20.8253 30.2807 21.1529 29.9641 21.7972" stroke="black" stroke-width="0.439791" stroke-linecap="round" stroke-linejoin="round"/>
<path d="M14.7781 20.6604C15.075 20.4493 15.4862 20.4141 15.8138 20.5703C16.1415 20.7264 16.3745 21.0694 16.3965 21.4323" stroke="black" stroke-width="0.439791" stroke-linecap="round" stroke-linejoin="round"/>
<path d="M30.5732 15.4598C31.411 15.2905 32.3301 15.6687 32.8095 16.3746" stroke="black" stroke-width="0.439791" stroke-linecap="round" stroke-linejoin="round"/>
<path d="M13.7842 16.3174C14.8947 15.5082 16.3592 15.4268 17.7335 15.3762" stroke="black" stroke-width="0.439791" stroke-linecap="round" stroke-linejoin="round"/>
<path d="M14.4944 22.3645C13.5203 22.3645 13.5181 23.8796 14.4944 23.8796C15.4708 23.8796 15.4708 22.3645 14.4944 22.3645Z" fill="#35A5C4"/>
<path d="M30.7029 23.0331C29.7288 23.0331 29.7266 24.5482 30.7029 24.5482C31.6793 24.5482 31.6793 23.0331 30.7029 23.0331Z" fill="#35A5C4"/>
</g>
</svg>
