<svg width="46" height="46" viewBox="0 0 46 46" fill="none" xmlns="http://www.w3.org/2000/svg">
<rect x="1" y="1" width="44" height="44" rx="22" stroke="black" stroke-width="2"/>
<path d="M37.7313 37.8061C45.9272 29.6102 45.9272 16.3221 37.7313 8.12627C29.5355 -0.0695845 16.2473 -0.0695838 8.05148 8.12627C-0.144374 16.3221 -0.144374 29.6102 8.05148 37.8061C16.2473 46.002 29.5354 46.002 37.7313 37.8061Z" fill="#ACE2DF"/>
<mask id="mask0_341_930" style="mask-type:luminance" maskUnits="userSpaceOnUse" x="1" y="1" width="43" height="43">
<path d="M37.7313 37.8061C45.9272 29.6102 45.9272 16.3221 37.7313 8.12627C29.5355 -0.0695845 16.2473 -0.0695838 8.05148 8.12627C-0.144374 16.3221 -0.144374 29.6102 8.05148 37.8061C16.2473 46.002 29.5354 46.002 37.7313 37.8061Z" fill="white"/>
</mask>
<g mask="url(#mask0_341_930)">
<path d="M45.7943 40.7127C45.7943 37.4604 45.2732 32.9966 43.4041 30.4634C39.1513 24.6999 32.4819 25.0408 25.8015 25.2365C20.5679 25.3904 15.1981 25.6697 10.4 27.7653C5.71183 29.8103 2.65528 35.6595 2.04837 40.7127C14.1646 48.1759 28.8756 47.7845 45.7943 40.7127Z" fill="#35A5C4"/>
<mask id="mask1_341_930" style="mask-type:luminance" maskUnits="userSpaceOnUse" x="2" y="25" width="44" height="24">
<path d="M45.7943 40.7127C45.7943 37.4604 45.2732 32.9966 43.4041 30.4634C39.1513 24.6999 32.4819 25.0408 25.8015 25.2365C20.5679 25.3904 15.1981 25.6697 10.4 27.7653C5.71183 29.8103 2.65528 35.6595 2.04837 40.7127C15.6489 49.8318 30.0081 51.8988 45.7943 40.7127Z" fill="white"/>
</mask>
<g mask="url(#mask1_341_930)">
<path d="M1.45465 40.7522C1.41507 40.6269 1.38868 40.4971 1.39968 40.3674C1.43706 39.8682 1.9868 39.5802 2.27926 40.0749C2.36502 40.2201 2.4002 40.3894 2.42439 40.5543C2.38261 40.275 2.67507 39.9364 2.93235 39.877C3.12806 39.8308 3.35235 39.9078 3.4645 40.0749C3.55246 40.2069 3.56565 40.3784 3.53047 40.5345C3.49528 40.6884 3.41612 40.8314 3.33036 40.9655C3.06429 41.3833 2.72785 41.7549 2.33864 42.0606C2.31005 42.0826 2.27926 42.1068 2.24408 42.109C2.1869 42.1156 2.13633 42.0716 2.09675 42.0298C1.82408 41.7351 1.67455 41.3481 1.53162 40.9743C1.50303 40.9017 1.47665 40.8292 1.45246 40.7544L1.45465 40.7522Z" fill="#FFB300"/>
<path d="M2.52994 33.4121C2.49036 33.2868 2.46397 33.157 2.47497 33.0273C2.51235 32.5281 3.06209 32.2401 3.35455 32.7348C3.44031 32.88 3.47549 33.0493 3.49968 33.2142C3.4579 32.9349 3.75036 32.5963 4.00764 32.5369C4.20334 32.4908 4.42763 32.5677 4.53978 32.7348C4.62774 32.8668 4.64094 33.0383 4.60575 33.1944C4.57057 33.3483 4.49141 33.4913 4.40565 33.6254C4.13957 34.0432 3.80313 34.4148 3.41392 34.7205C3.38533 34.7425 3.35455 34.7667 3.31936 34.7689C3.26219 34.7755 3.21161 34.7315 3.17203 34.6897C2.89936 34.3951 2.74984 34.008 2.6069 33.6342C2.57832 33.5616 2.55193 33.4891 2.52774 33.4143L2.52994 33.4121Z" fill="#FFB300"/>
<path d="M1.9868 37.0822C1.94722 36.9568 1.92083 36.8271 1.93183 36.6973C1.96921 36.1982 2.51895 35.9101 2.81141 36.4049C2.89717 36.55 2.93235 36.7193 2.95654 36.8843C2.91476 36.605 3.20722 36.2664 3.4645 36.207C3.66021 36.1608 3.8845 36.2378 3.99664 36.4049C4.0846 36.5368 4.0978 36.7083 4.06262 36.8645C4.02743 37.0184 3.94827 37.1613 3.86251 37.2955C3.59644 37.7133 3.25999 38.0849 2.87078 38.3905C2.84219 38.4125 2.81141 38.4367 2.77623 38.4389C2.71905 38.4455 2.66848 38.4015 2.62889 38.3598C2.35622 38.0651 2.2067 37.6781 2.06377 37.3043C2.03518 37.2317 2.00879 37.1591 1.9846 37.0844L1.9868 37.0822Z" fill="#FFB300"/>
<path d="M5.71623 40.7522C5.67665 40.6269 5.65026 40.4971 5.66125 40.3674C5.69864 39.8682 6.24837 39.5802 6.54083 40.0749C6.62659 40.2201 6.66178 40.3894 6.68597 40.5543C6.64419 40.275 6.93665 39.9364 7.19392 39.877C7.38963 39.8308 7.61393 39.9078 7.72607 40.0749C7.81403 40.2069 7.82722 40.3784 7.79204 40.5345C7.75686 40.6884 7.67769 40.8314 7.59193 40.9655C7.32586 41.3833 6.98942 41.7549 6.60021 42.0606C6.57162 42.0826 6.54083 42.1068 6.50565 42.109C6.44848 42.1156 6.39791 42.0716 6.35832 42.0298C6.08565 41.7351 5.93612 41.3481 5.79319 40.9743C5.76461 40.9017 5.73822 40.8292 5.71403 40.7544L5.71623 40.7522Z" fill="#FFB300"/>
<path d="M6.79371 33.4121C6.75413 33.2868 6.72774 33.157 6.73874 33.0273C6.77612 32.5281 7.32586 32.2401 7.61832 32.7348C7.70408 32.88 7.73926 33.0493 7.76345 33.2142C7.72167 32.9349 8.01413 32.5963 8.27141 32.5369C8.46711 32.4908 8.69141 32.5677 8.80356 32.7348C8.89152 32.8668 8.90471 33.0383 8.86952 33.1944C8.83434 33.3483 8.75518 33.4913 8.66942 33.6254C8.40334 34.0432 8.06691 34.4148 7.67769 34.7205C7.64911 34.7425 7.61832 34.7667 7.58314 34.7689C7.52597 34.7755 7.47539 34.7315 7.43581 34.6897C7.16314 34.3951 7.01361 34.008 6.87068 33.6342C6.84209 33.5616 6.81571 33.4891 6.79152 33.4143L6.79371 33.4121Z" fill="#FFB300"/>
<path d="M6.25057 37.0822C6.21099 36.9568 6.18461 36.8271 6.1956 36.6973C6.23298 36.1982 6.78272 35.9101 7.07518 36.4049C7.16094 36.55 7.19613 36.7193 7.22031 36.8843C7.17853 36.605 7.47099 36.2664 7.72827 36.207C7.92398 36.1608 8.14827 36.2378 8.26042 36.4049C8.34838 36.5368 8.36157 36.7083 8.32639 36.8645C8.2912 37.0184 8.21204 37.1613 8.12628 37.2955C7.86021 37.7133 7.52377 38.0849 7.13456 38.3905C7.10597 38.4125 7.07519 38.4367 7.04 38.4389C6.98283 38.4455 6.93225 38.4015 6.89267 38.3598C6.62 38.0651 6.47047 37.6781 6.32754 37.3043C6.29895 37.2317 6.27257 37.1591 6.24838 37.0844L6.25057 37.0822Z" fill="#FFB300"/>
<path d="M9.98 40.7522C9.94042 40.6269 9.91403 40.4971 9.92502 40.3674C9.96241 39.8682 10.5121 39.5802 10.8046 40.0749C10.8904 40.2201 10.9255 40.3894 10.9497 40.5543C10.908 40.275 11.2004 39.9364 11.4577 39.877C11.6534 39.8308 11.8777 39.9078 11.9898 40.0749C12.0778 40.2069 12.091 40.3784 12.0558 40.5345C12.0206 40.6884 11.9415 40.8314 11.8557 40.9655C11.5896 41.3833 11.2532 41.7549 10.864 42.0606C10.8354 42.0826 10.8046 42.1068 10.7694 42.109C10.7122 42.1156 10.6617 42.0716 10.6221 42.0298C10.3494 41.7351 10.1999 41.3481 10.057 40.9743C10.0284 40.9017 10.002 40.8292 9.9778 40.7544L9.98 40.7522Z" fill="#FFB300"/>
<path d="M11.0553 33.4121C11.0157 33.2868 10.9893 33.157 11.0003 33.0273C11.0377 32.5281 11.5874 32.2401 11.8799 32.7348C11.9657 32.88 12.0008 33.0493 12.025 33.2142C11.9832 32.9349 12.2757 32.5963 12.533 32.5369C12.7287 32.4908 12.953 32.5677 13.0651 32.7348C13.1531 32.8668 13.1663 33.0383 13.1311 33.1944C13.0959 33.3483 13.0168 33.4913 12.931 33.6254C12.6649 34.0432 12.3285 34.4148 11.9393 34.7205C11.9107 34.7425 11.8799 34.7667 11.8447 34.7689C11.7875 34.7755 11.737 34.7315 11.6974 34.6897C11.4247 34.3951 11.2752 34.008 11.1322 33.6342C11.1037 33.5616 11.0773 33.4891 11.0531 33.4143L11.0553 33.4121Z" fill="#FFB300"/>
<path d="M10.5121 37.0822C10.4726 36.9568 10.4462 36.8271 10.4572 36.6973C10.4945 36.1982 11.0443 35.9101 11.3367 36.4049C11.4225 36.55 11.4577 36.7193 11.4819 36.8843C11.4401 36.605 11.7326 36.2664 11.9898 36.207C12.1855 36.1608 12.4098 36.2378 12.522 36.4049C12.6099 36.5368 12.6231 36.7083 12.588 36.8645C12.5528 37.0184 12.4736 37.1613 12.3878 37.2955C12.1218 37.7133 11.7853 38.0849 11.3961 38.3905C11.3675 38.4125 11.3367 38.4367 11.3016 38.4389C11.2444 38.4455 11.1938 38.4015 11.1542 38.3598C10.8816 38.0651 10.732 37.6781 10.5891 37.3043C10.5605 37.2317 10.5341 37.1591 10.5099 37.0844L10.5121 37.0822Z" fill="#FFB300"/>
<path d="M14.2416 40.7522C14.202 40.6269 14.1756 40.4971 14.1866 40.3674C14.224 39.8682 14.7737 39.5802 15.0662 40.0749C15.1519 40.2201 15.1871 40.3894 15.2113 40.5543C15.1695 40.275 15.462 39.9364 15.7193 39.877C15.915 39.8308 16.1393 39.9078 16.2514 40.0749C16.3394 40.2069 16.3526 40.3784 16.3174 40.5345C16.2822 40.6884 16.203 40.8314 16.1173 40.9655C15.8512 41.3833 15.5148 41.7549 15.1255 42.0606C15.097 42.0826 15.0662 42.1068 15.031 42.109C14.9738 42.1156 14.9232 42.0716 14.8837 42.0298C14.611 41.7351 14.4615 41.3481 14.3185 40.9743C14.2899 40.9017 14.2636 40.8292 14.2394 40.7544L14.2416 40.7522Z" fill="#FFB300"/>
<path d="M15.3191 33.4121C15.2795 33.2868 15.2531 33.157 15.2641 33.0273C15.3015 32.5281 15.8512 32.2401 16.1437 32.7348C16.2294 32.88 16.2646 33.0493 16.2888 33.2142C16.247 32.9349 16.5395 32.5963 16.7968 32.5369C16.9925 32.4908 17.2167 32.5677 17.3289 32.7348C17.4169 32.8668 17.4301 33.0383 17.3949 33.1944C17.3597 33.3483 17.2805 33.4913 17.1948 33.6254C16.9287 34.0432 16.5922 34.4148 16.203 34.7205C16.1744 34.7425 16.1437 34.7667 16.1085 34.7689C16.0513 34.7755 16.0007 34.7315 15.9611 34.6897C15.6885 34.3951 15.539 34.008 15.396 33.6342C15.3674 33.5616 15.341 33.4891 15.3169 33.4143L15.3191 33.4121Z" fill="#FFB300"/>
<path d="M14.7759 37.0822C14.7363 36.9568 14.7099 36.8271 14.7209 36.6973C14.7583 36.1982 15.3081 35.9101 15.6005 36.4049C15.6863 36.55 15.7215 36.7193 15.7457 36.8843C15.7039 36.605 15.9963 36.2664 16.2536 36.207C16.4493 36.1608 16.6736 36.2378 16.7858 36.4049C16.8737 36.5368 16.8869 36.7083 16.8517 36.8645C16.8165 37.0184 16.7374 37.1613 16.6516 37.2955C16.3855 37.7133 16.0491 38.0849 15.6599 38.3905C15.6313 38.4125 15.6005 38.4367 15.5653 38.4389C15.5082 38.4455 15.4576 38.4015 15.418 38.3598C15.1453 38.0651 14.9958 37.6781 14.8529 37.3043C14.8243 37.2317 14.7979 37.1591 14.7737 37.0844L14.7759 37.0822Z" fill="#FFB300"/>
<path d="M18.5053 40.7522C18.4658 40.6269 18.4394 40.4971 18.4504 40.3674C18.4877 39.8682 19.0375 39.5802 19.3299 40.0749C19.4157 40.2201 19.4509 40.3894 19.4751 40.5543C19.4333 40.275 19.7258 39.9364 19.983 39.877C20.1787 39.8308 20.403 39.9078 20.5152 40.0749C20.6031 40.2069 20.6163 40.3784 20.5811 40.5345C20.546 40.6884 20.4668 40.8314 20.381 40.9655C20.115 41.3833 19.7785 41.7549 19.3893 42.0606C19.3607 42.0826 19.3299 42.1068 19.2948 42.109C19.2376 42.1156 19.187 42.0716 19.1474 42.0298C18.8748 41.7351 18.7252 41.3481 18.5823 40.9743C18.5537 40.9017 18.5273 40.8292 18.5031 40.7544L18.5053 40.7522Z" fill="#FFB300"/>
<path d="M19.5806 33.4121C19.541 33.2868 19.5147 33.157 19.5257 33.0273C19.563 32.5281 20.1128 32.2401 20.4052 32.7348C20.491 32.88 20.5262 33.0493 20.5504 33.2142C20.5086 32.9349 20.801 32.5963 21.0583 32.5369C21.254 32.4908 21.4783 32.5677 21.5905 32.7348C21.6784 32.8668 21.6916 33.0383 21.6564 33.1944C21.6213 33.3483 21.5421 33.4913 21.4563 33.6254C21.1903 34.0432 20.8538 34.4148 20.4646 34.7205C20.436 34.7425 20.4052 34.7667 20.3701 34.7689C20.3129 34.7755 20.2623 34.7315 20.2227 34.6897C19.9501 34.3951 19.8005 34.008 19.6576 33.6342C19.629 33.5616 19.6026 33.4891 19.5784 33.4143L19.5806 33.4121Z" fill="#FFB300"/>
<path d="M19.0375 37.0822C18.9979 36.9568 18.9715 36.8271 18.9825 36.6973C19.0199 36.1982 19.5696 35.9101 19.8621 36.4049C19.9479 36.55 19.983 36.7193 20.0072 36.8843C19.9654 36.605 20.2579 36.2664 20.5152 36.207C20.7109 36.1608 20.9352 36.2378 21.0473 36.4049C21.1353 36.5368 21.1485 36.7083 21.1133 36.8645C21.0781 37.0184 20.999 37.1613 20.9132 37.2955C20.6471 37.7133 20.3107 38.0849 19.9215 38.3905C19.8929 38.4125 19.8621 38.4367 19.8269 38.4389C19.7697 38.4455 19.7192 38.4015 19.6796 38.3598C19.4069 38.0651 19.2574 37.6781 19.1144 37.3043C19.0859 37.2317 19.0595 37.1591 19.0353 37.0844L19.0375 37.0822Z" fill="#FFB300"/>
<path d="M22.7669 40.7522C22.7273 40.6269 22.7009 40.4971 22.7119 40.3674C22.7493 39.8682 23.2991 39.5802 23.5915 40.0749C23.6773 40.2201 23.7125 40.3894 23.7366 40.5543C23.6949 40.275 23.9873 39.9364 24.2446 39.877C24.4403 39.8308 24.6646 39.9078 24.7767 40.0749C24.8647 40.2069 24.8779 40.3784 24.8427 40.5345C24.8075 40.6884 24.7284 40.8314 24.6426 40.9655C24.3765 41.3833 24.0401 41.7549 23.6509 42.0606C23.6223 42.0826 23.5915 42.1068 23.5563 42.109C23.4992 42.1156 23.4486 42.0716 23.409 42.0298C23.1363 41.7351 22.9868 41.3481 22.8439 40.9743C22.8153 40.9017 22.7889 40.8292 22.7647 40.7544L22.7669 40.7522Z" fill="#FFB300"/>
<path d="M23.8444 33.4121C23.8048 33.2868 23.7784 33.157 23.7894 33.0273C23.8268 32.5281 24.3765 32.2401 24.669 32.7348C24.7548 32.88 24.7899 33.0493 24.8141 33.2142C24.7724 32.9349 25.0648 32.5963 25.3221 32.5369C25.5178 32.4908 25.7421 32.5677 25.8542 32.7348C25.9422 32.8668 25.9554 33.0383 25.9202 33.1944C25.885 33.3483 25.8059 33.4913 25.7201 33.6254C25.454 34.0432 25.1176 34.4148 24.7284 34.7205C24.6998 34.7425 24.669 34.7667 24.6338 34.7689C24.5766 34.7755 24.5261 34.7315 24.4865 34.6897C24.2138 34.3951 24.0643 34.008 23.9214 33.6342C23.8928 33.5616 23.8664 33.4891 23.8422 33.4143L23.8444 33.4121Z" fill="#FFB300"/>
<path d="M23.3013 37.0822C23.2617 36.9568 23.2353 36.8271 23.2463 36.6973C23.2837 36.1982 23.8334 35.9101 24.1259 36.4049C24.2116 36.55 24.2468 36.7193 24.271 36.8843C24.2292 36.605 24.5217 36.2664 24.779 36.207C24.9747 36.1608 25.199 36.2378 25.3111 36.4049C25.3991 36.5368 25.4123 36.7083 25.3771 36.8645C25.3419 37.0184 25.2627 37.1613 25.177 37.2955C24.9109 37.7133 24.5745 38.0849 24.1852 38.3905C24.1567 38.4125 24.1259 38.4367 24.0907 38.4389C24.0335 38.4455 23.9829 38.4015 23.9434 38.3598C23.6707 38.0651 23.5212 37.6781 23.3782 37.3043C23.3496 37.2317 23.3232 37.1591 23.2991 37.0844L23.3013 37.0822Z" fill="#FFB300"/>
<path d="M27.0307 40.7522C26.9911 40.6269 26.9647 40.4971 26.9757 40.3674C27.0131 39.8682 27.5628 39.5802 27.8553 40.0749C27.941 40.2201 27.9762 40.3894 28.0004 40.5543C27.9586 40.275 28.2511 39.9364 28.5084 39.877C28.7041 39.8308 28.9284 39.9078 29.0405 40.0749C29.1285 40.2069 29.1417 40.3784 29.1065 40.5345C29.0713 40.6884 28.9921 40.8314 28.9064 40.9655C28.6403 41.3833 28.3039 41.7549 27.9147 42.0606C27.8861 42.0826 27.8553 42.1068 27.8201 42.109C27.7629 42.1156 27.7124 42.0716 27.6728 42.0298C27.4001 41.7351 27.2506 41.3481 27.1076 40.9743C27.0791 40.9017 27.0527 40.8292 27.0285 40.7544L27.0307 40.7522Z" fill="#FFB300"/>
<path d="M28.1082 33.4121C28.0686 33.2868 28.0422 33.157 28.0532 33.0273C28.0906 32.5281 28.6403 32.2401 28.9328 32.7348C29.0185 32.88 29.0537 33.0493 29.0779 33.2142C29.0361 32.9349 29.3286 32.5963 29.5859 32.5369C29.7816 32.4908 30.0059 32.5677 30.118 32.7348C30.206 32.8668 30.2192 33.0383 30.184 33.1944C30.1488 33.3483 30.0696 33.4913 29.9839 33.6254C29.7178 34.0432 29.3814 34.4148 28.9921 34.7205C28.9636 34.7425 28.9328 34.7667 28.8976 34.7689C28.8404 34.7755 28.7898 34.7315 28.7503 34.6897C28.4776 34.3951 28.3281 34.008 28.1851 33.6342C28.1565 33.5616 28.1302 33.4891 28.106 33.4143L28.1082 33.4121Z" fill="#FFB300"/>
<path d="M27.565 37.0822C27.5254 36.9568 27.4991 36.8271 27.5101 36.6973C27.5474 36.1982 28.0972 35.9101 28.3896 36.4049C28.4754 36.55 28.5106 36.7193 28.5348 36.8843C28.493 36.605 28.7854 36.2664 29.0427 36.207C29.2384 36.1608 29.4627 36.2378 29.5749 36.4049C29.6628 36.5368 29.676 36.7083 29.6408 36.8645C29.6057 37.0184 29.5265 37.1613 29.4407 37.2955C29.1747 37.7133 28.8382 38.0849 28.449 38.3905C28.4204 38.4125 28.3896 38.4367 28.3545 38.4389C28.2973 38.4455 28.2467 38.4015 28.2071 38.3598C27.9344 38.0651 27.7849 37.6781 27.642 37.3043C27.6134 37.2317 27.587 37.1591 27.5628 37.0844L27.565 37.0822Z" fill="#FFB300"/>
<path d="M31.2944 40.7522C31.2549 40.6269 31.2285 40.4971 31.2395 40.3674C31.2769 39.8682 31.8266 39.5802 32.1191 40.0749C32.2048 40.2201 32.24 40.3894 32.2642 40.5543C32.2224 40.275 32.5149 39.9364 32.7721 39.877C32.9678 39.8308 33.1921 39.9078 33.3043 40.0749C33.3922 40.2069 33.4054 40.3784 33.3703 40.5345C33.3351 40.6884 33.2559 40.8314 33.1702 40.9655C32.9041 41.3833 32.5676 41.7549 32.1784 42.0606C32.1498 42.0826 32.1191 42.1068 32.0839 42.109C32.0267 42.1156 31.9761 42.0716 31.9365 42.0298C31.6639 41.7351 31.5143 41.3481 31.3714 40.9743C31.3428 40.9017 31.3164 40.8292 31.2922 40.7544L31.2944 40.7522Z" fill="#FFB300"/>
<path d="M32.3697 33.4121C32.3301 33.2868 32.3038 33.157 32.3148 33.0273C32.3521 32.5281 32.9019 32.2401 33.1943 32.7348C33.2801 32.88 33.3153 33.0493 33.3395 33.2142C33.2977 32.9349 33.5901 32.5963 33.8474 32.5369C34.0431 32.4908 34.2674 32.5677 34.3796 32.7348C34.4675 32.8668 34.4807 33.0383 34.4455 33.1944C34.4104 33.3483 34.3312 33.4913 34.2454 33.6254C33.9794 34.0432 33.6429 34.4148 33.2537 34.7205C33.2251 34.7425 33.1943 34.7667 33.1592 34.7689C33.102 34.7755 33.0514 34.7315 33.0118 34.6897C32.7392 34.3951 32.5896 34.008 32.4467 33.6342C32.4181 33.5616 32.3917 33.4891 32.3675 33.4143L32.3697 33.4121Z" fill="#FFB300"/>
<path d="M31.8266 37.0822C31.787 36.9568 31.7606 36.8271 31.7716 36.6973C31.809 36.1982 32.3587 35.9101 32.6512 36.4049C32.737 36.55 32.7721 36.7193 32.7963 36.8843C32.7545 36.605 33.047 36.2664 33.3043 36.207C33.5 36.1608 33.7243 36.2378 33.8364 36.4049C33.9244 36.5368 33.9376 36.7083 33.9024 36.8645C33.8672 37.0184 33.7881 37.1613 33.7023 37.2955C33.4362 37.7133 33.0998 38.0849 32.7106 38.3905C32.682 38.4125 32.6512 38.4367 32.616 38.4389C32.5588 38.4455 32.5083 38.4015 32.4687 38.3598C32.196 38.0651 32.0465 37.6781 31.9036 37.3043C31.875 37.2317 31.8486 37.1591 31.8244 37.0844L31.8266 37.0822Z" fill="#FFB300"/>
<path d="M35.556 40.7522C35.5164 40.6269 35.49 40.4971 35.501 40.3674C35.5384 39.8682 36.0882 39.5802 36.3806 40.0749C36.4664 40.2201 36.5016 40.3894 36.5258 40.5543C36.484 40.275 36.7764 39.9364 37.0337 39.877C37.2294 39.8308 37.4537 39.9078 37.5659 40.0749C37.6538 40.2069 37.667 40.3784 37.6318 40.5345C37.5966 40.6884 37.5175 40.8314 37.4317 40.9655C37.1657 41.3833 36.8292 41.7549 36.44 42.0606C36.4114 42.0826 36.3806 42.1068 36.3454 42.109C36.2883 42.1156 36.2377 42.0716 36.1981 42.0298C35.9254 41.7351 35.7759 41.3481 35.633 40.9743C35.6044 40.9017 35.578 40.8292 35.5538 40.7544L35.556 40.7522Z" fill="#FFB300"/>
<path d="M36.6335 33.4121C36.5939 33.2868 36.5675 33.157 36.5785 33.0273C36.6159 32.5281 37.1656 32.2401 37.4581 32.7348C37.5439 32.88 37.5791 33.0493 37.6032 33.2142C37.5615 32.9349 37.8539 32.5963 38.1112 32.5369C38.3069 32.4908 38.5312 32.5677 38.6433 32.7348C38.7313 32.8668 38.7445 33.0383 38.7093 33.1944C38.6741 33.3483 38.595 33.4913 38.5092 33.6254C38.2431 34.0432 37.9067 34.4148 37.5175 34.7205C37.4889 34.7425 37.4581 34.7667 37.4229 34.7689C37.3658 34.7755 37.3152 34.7315 37.2756 34.6897C37.0029 34.3951 36.8534 34.008 36.7105 33.6342C36.6819 33.5616 36.6555 33.4891 36.6313 33.4143L36.6335 33.4121Z" fill="#FFB300"/>
<path d="M36.0904 37.0822C36.0508 36.9568 36.0244 36.8271 36.0354 36.6973C36.0728 36.1982 36.6225 35.9101 36.915 36.4049C37.0007 36.55 37.0359 36.7193 37.0601 36.8843C37.0183 36.605 37.3108 36.2664 37.5681 36.207C37.7638 36.1608 37.9881 36.2378 38.1002 36.4049C38.1882 36.5368 38.2014 36.7083 38.1662 36.8645C38.131 37.0184 38.0518 37.1613 37.9661 37.2955C37.7 37.7133 37.3636 38.0849 36.9743 38.3905C36.9458 38.4125 36.915 38.4367 36.8798 38.4389C36.8226 38.4455 36.772 38.4015 36.7325 38.3598C36.4598 38.0651 36.3103 37.6781 36.1673 37.3043C36.1387 37.2317 36.1124 37.1591 36.0882 37.0844L36.0904 37.0822Z" fill="#FFB300"/>
<path d="M39.8198 40.7522C39.7802 40.6269 39.7538 40.4971 39.7648 40.3674C39.8022 39.8682 40.3519 39.5802 40.6444 40.0749C40.7301 40.2201 40.7653 40.3894 40.7895 40.5543C40.7477 40.275 41.0402 39.9364 41.2975 39.877C41.4932 39.8308 41.7175 39.9078 41.8296 40.0749C41.9176 40.2069 41.9308 40.3784 41.8956 40.5345C41.8604 40.6884 41.7812 40.8314 41.6955 40.9655C41.4294 41.3833 41.093 41.7549 40.7038 42.0606C40.6752 42.0826 40.6444 42.1068 40.6092 42.109C40.552 42.1156 40.5015 42.0716 40.4619 42.0298C40.1892 41.7351 40.0397 41.3481 39.8967 40.9743C39.8682 40.9017 39.8418 40.8292 39.8176 40.7544L39.8198 40.7522Z" fill="#FFB300"/>
<path d="M40.8951 33.4121C40.8555 33.2868 40.8291 33.157 40.8401 33.0273C40.8775 32.5281 41.4272 32.2401 41.7197 32.7348C41.8054 32.88 41.8406 33.0493 41.8648 33.2142C41.823 32.9349 42.1155 32.5963 42.3728 32.5369C42.5685 32.4908 42.7928 32.5677 42.9049 32.7348C42.9929 32.8668 43.0061 33.0383 42.9709 33.1944C42.9357 33.3483 42.8565 33.4913 42.7708 33.6254C42.5047 34.0432 42.1683 34.4148 41.7791 34.7205C41.7505 34.7425 41.7197 34.7667 41.6845 34.7689C41.6273 34.7755 41.5767 34.7315 41.5372 34.6897C41.2645 34.3951 41.115 34.008 40.972 33.6342C40.9435 33.5616 40.9171 33.4891 40.8929 33.4143L40.8951 33.4121Z" fill="#FFB300"/>
<path d="M40.3519 37.0822C40.3123 36.9568 40.286 36.8271 40.297 36.6973C40.3343 36.1982 40.8841 35.9101 41.1765 36.4049C41.2623 36.55 41.2975 36.7193 41.3217 36.8843C41.2799 36.605 41.5724 36.2664 41.8296 36.207C42.0253 36.1608 42.2496 36.2378 42.3618 36.4049C42.4497 36.5368 42.4629 36.7083 42.4277 36.8645C42.3926 37.0184 42.3134 37.1613 42.2276 37.2955C41.9616 37.7133 41.6251 38.0849 41.2359 38.3905C41.2073 38.4125 41.1765 38.4367 41.1414 38.4389C41.0842 38.4455 41.0336 38.4015 40.994 38.3598C40.7214 38.0651 40.5718 37.6781 40.4289 37.3043C40.4003 37.2317 40.3739 37.1591 40.3497 37.0844L40.3519 37.0822Z" fill="#FFB300"/>
</g>
<path d="M17.518 26.0655C18.2744 29.8059 19.4773 33.5837 21.8587 38.0432C25.6299 33.9267 28.3962 29.7531 30.3181 25.0342" fill="white"/>
<path d="M18.5801 21.6719C19.6664 24.9945 21.0209 28.3369 22.2611 31.521C25.1682 28.3479 27.4771 25.1396 29.2626 21.6719H18.5801Z" fill="#F4947D"/>
<path d="M24.2908 10.5562C22.0852 10.6486 19.717 10.8025 17.9908 12.1791C16.4955 13.3709 15.7522 15.3104 15.6005 17.2169C15.3213 20.6824 15.5609 26.0633 18.7582 28.2028C22.89 30.9691 29.0713 27.862 31.5979 24.2953C32.7589 22.6571 33.2361 20.7022 33.1592 18.7078C33.091 16.8914 32.6028 15.1147 31.9805 13.4061C31.831 12.9949 31.6705 12.5815 31.4022 12.2362C29.8189 10.2 26.5535 10.4617 24.2886 10.5562H24.2908Z" fill="#F4947D"/>
<path d="M27.6794 25.2321C27.8267 23.629 26.7624 22.0524 25.3023 21.3729C23.8422 20.6934 22.0874 20.8298 20.6229 21.5027C19.1188 22.1953 17.894 23.5257 17.9952 25.2739C18.9671 25.3992 20.0842 25.1991 20.9506 24.7351C21.3508 24.5218 21.7136 24.2382 22.0237 23.9083C22.1776 23.7434 22.3205 23.5653 22.4459 23.3784C22.5558 23.2156 22.6152 23.0221 22.7229 22.866C23.0462 23.7434 23.8378 24.4273 24.6514 24.8495C25.5728 25.3288 26.6679 25.4982 27.6816 25.2321H27.6794Z" fill="black"/>
<path d="M23.9675 18.4614C23.0176 18.6571 22.0984 18.9936 21.2452 19.4554C20.9396 19.6203 20.6031 19.871 20.6185 20.2184C20.6295 20.4471 20.8032 20.645 21.0121 20.7439C21.221 20.8429 21.4563 20.8583 21.6872 20.8627C22.6789 20.8759 23.6729 20.6626 24.5722 20.247" stroke="black" stroke-width="0.439791" stroke-linecap="round" stroke-linejoin="round"/>
<path d="M19.5454 18.1623C19.5454 18.5098 19.264 18.7912 18.9165 18.7912C18.5691 18.7912 18.2876 18.5098 18.2876 18.1623C18.2876 17.8149 18.5691 17.5334 18.9165 17.5334C19.264 17.5334 19.5454 17.8149 19.5454 18.1623Z" fill="black"/>
<path d="M28.9504 18.1623C28.9504 18.5098 28.6689 18.7912 28.3215 18.7912C27.974 18.7912 27.6926 18.5098 27.6926 18.1623C27.6926 17.8149 27.974 17.5334 28.3215 17.5334C28.6689 17.5334 28.9504 17.8149 28.9504 18.1623Z" fill="black"/>
<path d="M20.7944 23.7236C21.1441 24.3745 21.9115 24.7725 22.6438 24.6845C23.376 24.5966 24.0291 24.0292 24.216 23.3146" stroke="black" stroke-width="0.439791" stroke-linecap="round" stroke-linejoin="round"/>
<path d="M17.9666 19.4598C17.7335 19.3939 17.4366 19.3389 17.2585 19.4554C16.9661 19.6445 17.0518 20.1261 17.2189 20.3702C17.5092 20.7968 17.949 20.9441 18.424 21.0277C18.811 21.0958 19.618 21.1948 19.4993 20.5461C19.3981 19.9942 18.6109 19.6643 18.1425 19.5126C18.0919 19.495 18.0304 19.4774 17.9644 19.4576L17.9666 19.4598Z" fill="#ED7153"/>
<path d="M28.2313 19.7655C28.0048 19.8425 27.7321 19.9634 27.6552 20.1481C27.5298 20.4494 27.8817 20.7638 28.1609 20.8562C28.6447 21.0189 29.0889 20.8914 29.5243 20.6935C29.8783 20.5329 30.5886 20.1679 30.1114 19.7457C29.7046 19.3851 28.8756 19.5676 28.4072 19.7083C28.3566 19.7237 28.2951 19.7413 28.2313 19.7633V19.7655Z" fill="#ED7153"/>
<path d="M30.7447 7.91968C29.5441 7.35235 28.2005 7.04669 26.9141 6.91255C25.5112 6.76522 24.0027 6.35402 22.5998 6.65528C21.5905 6.87297 20.6163 7.57664 20.4008 8.58596C20.2667 9.21046 20.4338 9.85915 20.6537 10.4595C20.933 11.2181 21.2958 12.1461 21.8346 12.7596C22.4107 13.4127 23.0836 13.052 23.8202 12.8409C25.498 12.3594 27.2572 11.8448 28.9504 12.5595C30.6721 13.2851 32.0003 15.5918 32.5369 17.4104C32.9195 18.7099 32.9371 20.0865 32.9525 21.4432C33.2977 19.2333 33.6429 17.0255 33.9882 14.8156C34.2278 13.2829 34.4346 11.5853 33.5814 10.2901C32.8799 9.22365 31.8772 8.45842 30.7447 7.92407V7.91968Z" fill="black"/>
<path d="M16.0007 11.5721C15.7303 11.9987 15.5126 12.4736 15.3498 12.997C15.108 13.7732 14.2548 17.0299 14.943 17.4895C15.9545 18.1645 16.4295 15.1718 16.7286 14.6176C17.2277 13.6919 18.0172 12.8761 19.0243 12.5748C19.8709 12.3219 20.7769 12.4517 21.6608 12.4583C22.5448 12.4649 23.5146 12.3021 24.0929 11.6336C24.4953 11.1697 24.6382 10.532 24.6712 9.91846C24.6998 9.40831 24.6448 8.85417 24.3106 8.46716C23.8532 7.93721 23.0506 7.90422 22.3557 7.98338C19.8951 8.26265 17.3553 9.4259 16.0029 11.5721H16.0007Z" fill="black"/>
<path d="M35.4285 18.7979C35.1668 18.4021 34.7116 18.1184 34.2037 17.9337C33.5836 17.7072 32.8403 17.7468 32.3148 18.147C31.9519 18.4241 31.7188 18.8484 31.6155 19.2926C31.4066 20.192 31.6661 21.386 32.6204 21.7621C33.0294 21.9226 33.5044 21.8808 33.9134 21.7445C34.8172 21.4432 35.512 20.7593 35.6462 19.8006C35.7012 19.407 35.6132 19.0727 35.4307 18.7957L35.4285 18.7979Z" fill="#F4947D"/>
<path d="M14.3053 17.2565C13.9315 17.3664 13.6259 17.6545 13.4302 17.9909C12.9706 18.7804 13.1223 19.8842 13.7974 20.4999C14.4725 21.1156 15.6071 21.1552 16.3064 20.5659C16.9177 20.0535 17.2189 18.8903 16.6582 18.235C16.1788 17.6765 15.0244 17.0432 14.3031 17.2565H14.3053Z" fill="#F4947D"/>
<path d="M21.9621 12.5089C21.9291 12.5199 21.8961 12.5287 21.8609 12.5396C21.4233 11.1697 21.3024 9.6986 21.5091 8.27588" stroke="#35A5C4" stroke-width="0.439791" stroke-linecap="round" stroke-linejoin="round"/>
<path d="M22.7251 12.9069C22.3227 11.051 22.6701 9.04335 23.6729 7.43152" stroke="#35A5C4" stroke-width="0.439791" stroke-linecap="round" stroke-linejoin="round"/>
<path d="M23.5145 11.9525C23.5277 10.7123 24.0247 9.48531 24.8801 8.58594" stroke="#35A5C4" stroke-width="0.439791" stroke-linecap="round" stroke-linejoin="round"/>
<path d="M21.729 12.6277C20.955 11.5216 20.5196 10.1846 20.491 8.83667" stroke="#35A5C4" stroke-width="0.439791" stroke-linecap="round" stroke-linejoin="round"/>
<path d="M24.1434 12.9839C25.177 12.5331 26.2193 12.0779 27.3187 11.8228C28.4182 11.5678 29.5903 11.5216 30.6611 11.88C31.4945 12.1593 32.0751 12.7112 32.7128 13.3181" stroke="#35A5C4" stroke-width="0.439791" stroke-linecap="round" stroke-linejoin="round"/>
<path d="M30.5666 13.041C31.4352 13.4104 32.1278 14.1735 32.4137 15.0728" stroke="#35A5C4" stroke-width="0.439791" stroke-linecap="round" stroke-linejoin="round"/>
<path d="M20.4536 12.5198C19.6246 12.4297 18.7846 12.3395 17.9622 12.4781C17.1398 12.6166 16.3262 13.0102 15.8644 13.7051" stroke="#35A5C4" stroke-width="0.439791" stroke-linecap="round" stroke-linejoin="round"/>
<path d="M17.2739 13.3401C16.6186 13.6216 16.0535 14.1119 15.6797 14.721" stroke="#35A5C4" stroke-width="0.439791" stroke-linecap="round" stroke-linejoin="round"/>
<path d="M34.318 19.009C33.887 18.732 33.2955 18.7254 32.8601 18.9936C32.4225 19.2619 32.1608 19.7897 32.2114 20.2998" stroke="black" stroke-width="0.439791" stroke-linecap="round" stroke-linejoin="round"/>
<path d="M14.0986 18.7165C14.3691 18.3581 14.8683 18.191 15.3015 18.3141C15.7325 18.4372 16.0689 18.8463 16.1063 19.2926" stroke="black" stroke-width="0.439791" stroke-linecap="round" stroke-linejoin="round"/>
<path d="M21.6081 27.9939C21.9423 27.8927 22.2787 27.7938 22.613 27.6926" stroke="black" stroke-width="0.439791" stroke-linecap="round" stroke-linejoin="round"/>
<path d="M23.8004 39.2327C23.8004 39.6219 23.486 39.9364 23.0967 39.9364C22.7075 39.9364 22.3931 39.6219 22.3931 39.2327C22.3931 38.8435 22.7075 38.5291 23.0967 38.5291C23.486 38.5291 23.8004 38.8435 23.8004 39.2327Z" fill="black"/>
<path d="M22.9538 43.4812C23.3424 43.4812 23.6575 43.1661 23.6575 42.7775C23.6575 42.3889 23.3424 42.0739 22.9538 42.0739C22.5652 42.0739 22.2502 42.3889 22.2502 42.7775C22.2502 43.1661 22.5652 43.4812 22.9538 43.4812Z" fill="black"/>
<path d="M21.8983 37.9486C21.8895 38.9249 21.5157 43.7253 21.3728 44.6928" stroke="black" stroke-width="0.439791" stroke-linecap="round" stroke-linejoin="round"/>
<path d="M20.9572 29.0648C22.3491 29.1704 23.7498 29.122 25.1308 28.9197" stroke="black" stroke-width="0.439791" stroke-linecap="round" stroke-linejoin="round"/>
<path d="M20.6185 35.6814L22.3315 31.3627L23.6751 35.9607" stroke="#35A5C4" stroke-width="0.439791" stroke-linecap="round" stroke-linejoin="round"/>
<path d="M22.646 37.1306C24.6008 35.079 26.2852 32.7723 27.6442 30.2853" stroke="black" stroke-width="0.439791" stroke-linecap="round" stroke-linejoin="round"/>
<path d="M21.3486 37.1987C20.4316 35.3626 19.6906 33.4407 19.1386 31.4639" stroke="black" stroke-width="0.439791" stroke-linecap="round" stroke-linejoin="round"/>
</g>
</svg>
