<svg width="46" height="46" viewBox="0 0 46 46" fill="none" xmlns="http://www.w3.org/2000/svg">
<rect x="1" y="1" width="44" height="44" rx="22" stroke="black" stroke-width="2"/>
<path d="M37.8696 37.8728C46.0655 29.6769 46.0655 16.3888 37.8696 8.19292C29.6737 -0.0029341 16.3856 -0.00293342 8.18977 8.19292C-0.00608347 16.3888 -0.00608347 29.6769 8.18977 37.8728C16.3856 46.0686 29.6737 46.0686 37.8696 37.8728Z" fill="#ACE2DF"/>
<mask id="mask0_341_931" style="mask-type:luminance" maskUnits="userSpaceOnUse" x="2" y="2" width="43" height="43">
<path d="M37.8696 37.8728C46.0655 29.6769 46.0655 16.3888 37.8696 8.19292C29.6737 -0.0029341 16.3856 -0.00293342 8.18977 8.19292C-0.00608347 16.3888 -0.00608347 29.6769 8.18977 37.8728C16.3856 46.0686 29.6737 46.0686 37.8696 37.8728Z" fill="white"/>
</mask>
<g mask="url(#mask0_341_931)">
<path d="M50.8673 45.3941C50.742 41.3678 50.0163 36.4334 47.9537 33.4956C42.7026 26.0192 31.7562 23.2353 23.486 23.4772C17.0057 23.6663 11.0465 24.0775 6.16481 27.6772C1.38869 31.1977 -1.96252 39.1051 -3.06419 45.2996L50.8651 45.3941H50.8673Z" fill="#E0B8FF"/>
<mask id="mask1_341_931" style="mask-type:luminance" maskUnits="userSpaceOnUse" x="-4" y="23" width="55" height="23">
<path d="M50.8673 45.3941C50.742 41.3678 50.0163 36.4334 47.9537 33.4956C42.7026 26.0192 31.7562 23.2353 23.486 23.4772C17.0057 23.6663 11.0465 24.0775 6.16481 27.6772C1.38869 31.1977 -1.96252 39.1051 -3.06419 45.2996L50.8651 45.3941H50.8673Z" fill="white"/>
</mask>
<g mask="url(#mask1_341_931)">
<path d="M47.0038 22.127C43.1116 30.7557 41.2117 40.1408 41.4932 49.6051C41.5218 50.5924 43.061 50.599 43.0303 49.6073C42.7576 40.4267 44.5519 31.2812 48.3297 22.9054C48.7321 22.0105 47.4106 21.2254 47.0038 22.127Z" fill="#35A5C4"/>
<path d="M42.7862 22.1182C38.894 30.7469 36.9941 40.132 37.2756 49.5963C37.3042 50.5837 38.8434 50.5903 38.8127 49.5985C38.54 40.4179 40.3343 31.2725 44.1121 22.8966C44.5145 22.0017 43.193 21.2166 42.7862 22.1182Z" fill="#FF6EEE"/>
<path d="M38.5686 22.1116C34.6764 30.7403 32.7765 40.1254 33.058 49.5897C33.0866 50.5771 34.6258 50.5837 34.5951 49.5919C34.3224 40.4113 36.1167 31.2659 39.8945 22.8901C40.297 21.9951 38.9754 21.2101 38.5686 22.1116Z" fill="#FF6EEE"/>
<path d="M34.351 22.105C30.4588 30.7337 28.5589 40.1189 28.8404 49.5831C28.869 50.5705 30.4083 50.5771 30.3775 49.5853C30.1048 40.4047 31.8992 31.2593 35.677 22.8835C36.0794 21.9885 34.7578 21.2035 34.351 22.105Z" fill="#FF6EEE"/>
<path d="M30.1334 22.0962C26.2412 30.7249 24.3414 40.1101 24.6228 49.5744C24.6514 50.5617 26.1907 50.5683 26.1599 49.5765C25.8872 40.3959 27.6816 31.2505 31.4594 22.8747C31.8618 21.9797 30.5402 21.1947 30.1334 22.0962Z" fill="#FF6EEE"/>
<path d="M25.9158 22.0896C22.0237 30.7183 20.1238 40.1035 20.4052 49.5678C20.4338 50.5551 21.9731 50.5617 21.9423 49.57C21.6696 40.3893 23.464 31.2439 27.2418 22.8681C27.6442 21.9731 26.3226 21.1881 25.9158 22.0896Z" fill="#FF6EEE"/>
<path d="M21.6982 22.0809C17.8061 30.7096 15.9062 40.0947 16.1876 49.559C16.2162 50.5463 17.7555 50.5529 17.7247 49.5612C17.452 40.3805 19.2464 31.2351 23.0242 22.8593C23.4266 21.9643 22.105 21.1793 21.6982 22.0809Z" fill="#FF6EEE"/>
<path d="M17.4806 22.0743C13.5885 30.703 11.6886 40.0881 11.97 49.5524C11.9986 50.5397 13.5379 50.5463 13.5071 49.5546C13.2344 40.374 15.0288 31.2285 18.8066 22.8527C19.209 21.9577 17.8874 21.1727 17.4806 22.0743Z" fill="#FF6EEE"/>
<path d="M13.263 22.0677C9.37088 30.6964 7.47098 40.0815 7.75245 49.5458C7.78103 50.5331 9.3203 50.5397 9.28952 49.548C9.01685 40.3674 10.8112 31.2219 14.589 22.8461C14.9914 21.9511 13.6698 21.1661 13.263 22.0677Z" fill="#FF6EEE"/>
<path d="M9.04543 22.0589C5.15329 30.6876 3.25339 40.0727 3.53486 49.537C3.56344 50.5243 5.10271 50.5309 5.07193 49.5392C4.79926 40.3586 6.5936 31.2131 10.3714 22.8373C10.7738 21.9423 9.45224 21.1573 9.04543 22.0589Z" fill="#FF6EEE"/>
<path d="M4.82784 22.0523C0.935697 30.681 -0.964198 40.0661 -0.682732 49.5304C-0.654146 50.5177 0.885122 50.5243 0.854336 49.5326C0.581666 40.352 2.37601 31.2065 6.15381 22.8307C6.55622 21.9358 5.23465 21.1507 4.82784 22.0523Z" fill="#35A5C4"/>
</g>
<path d="M16.291 10.7386C14.6462 13.9424 13.7798 17.5443 13.7886 21.1462C13.7952 23.9477 15.0442 27.9454 18.3624 28.2664C19.8159 28.4072 21.3024 27.7761 22.6284 27.2571C23.9258 26.7491 25.1308 26.0059 26.1753 25.0845C27.8421 23.6178 29.1681 21.608 29.8343 19.4838C30.2851 18.0435 30.3973 16.5284 30.4347 15.0287C30.4654 13.7863 30.0608 12.5813 29.2252 11.6358C28.6755 11.0134 27.996 10.5209 27.3077 10.0547C26.4897 9.49837 25.6277 8.95522 24.6536 8.77271C23.7718 8.60779 22.8637 8.75292 21.9797 8.89805C20.0688 9.2103 18.0809 9.55334 16.5087 10.6836" fill="#D49487"/>
<path d="M31.2988 16.313C31.1889 16.1591 31.046 16.0249 30.8854 15.9458C30.5842 15.7984 30.1554 15.8182 29.8211 15.7765C29.0229 15.6775 28.2269 15.5763 27.4287 15.4774C26.8965 15.4114 26.7448 16.2338 27.2814 16.2998C28.0488 16.3966 28.814 16.4911 29.5815 16.5879C29.9091 16.6296 30.0938 16.5967 30.3335 16.8385C30.5512 17.0584 30.7381 17.3069 30.8898 17.5774C30.9272 17.6434 30.9602 17.7115 31.0152 17.7643C31.068 17.8171 31.1449 17.8523 31.2175 17.8369C31.3032 17.8193 31.3604 17.7379 31.4 17.661C31.5627 17.3465 31.5891 16.9617 31.4682 16.6296C31.4286 16.5219 31.3714 16.4119 31.301 16.313H31.2988Z" fill="#35A5C4"/>
<path d="M27.8443 13.6786C28.2203 13.9952 28.6535 14.2679 29.1681 14.501C29.6364 14.7143 29.9993 14.7165 30.5094 14.7165C30.6062 13.5093 30.6589 12.2713 30.052 11.1894C29.4825 10.1735 28.6425 9.31588 27.6464 8.71336C27.8971 8.6342 28.1411 8.53745 28.3742 8.4165C28.9064 8.13724 29.4737 7.71284 29.7574 7.1697C30.0476 6.61337 30.03 5.92509 29.8101 5.34677C29.3901 4.24949 28.3105 3.47106 27.1318 3.44687C25.929 3.42268 24.7262 4.15713 24.1918 5.23462C23.8664 5.88991 23.763 6.66614 24.0797 7.34561C24.15 7.49734 24.2424 7.63808 24.3501 7.76562C24.1874 7.57651 22.9384 7.87557 22.7031 7.91955C22.1886 8.0185 21.6806 8.08886 21.1661 8.20541C20.0688 8.45389 18.9715 8.75514 17.9688 9.2763C16.8561 9.85242 15.8534 10.7386 15.3366 11.8667C15.2091 12.1459 15.3718 12.4736 15.6731 12.5417C16.3416 12.6913 16.9595 12.8276 17.6939 12.8496C18.6725 12.8804 19.6532 12.8496 20.6273 12.7616C21.6015 12.6715 22.5712 12.522 23.5299 12.3153C23.7652 12.2647 26.2808 11.5544 26.2742 11.5434C26.703 12.4252 27.1846 13.1245 27.8465 13.6808L27.8443 13.6786Z" fill="black"/>
<path d="M19.0837 17.7731C18.4328 18.2261 17.2827 19.099 17.1376 19.9412C16.9221 21.1836 18.4745 20.7351 19.0353 20.3656" stroke="black" stroke-width="0.439791" stroke-linecap="round" stroke-linejoin="round"/>
<path d="M21.243 17.4565C19.8049 17.4037 18.3668 17.3949 16.9287 17.4345C16.3921 17.4477 16.3899 18.2855 16.9287 18.2701C18.3668 18.2327 19.8049 18.2393 21.243 18.2921C21.7818 18.3119 21.7796 17.4763 21.243 17.4565Z" fill="#35A5C4"/>
<path d="M23.2595 15.6379C24.238 15.4773 25.2253 15.363 26.2171 15.2992C26.8921 15.2553 28.9701 14.8748 29.3286 15.5939C29.5331 16.0029 29.1417 16.4405 28.7656 16.7329C27.7036 17.5598 26.4963 18.2326 25.2077 18.7252C24.0159 19.1804 22.4832 19.7015 21.1661 19.5718C20.4624 19.5014 19.6136 19.0638 19.3849 18.4349C19.2046 17.9402 19.2904 16.8297 19.7521 16.4537C20.0314 16.2272 20.7329 16.1634 21.0935 16.0777C21.5839 15.9589 22.0786 15.8512 22.5778 15.7588C22.8043 15.7148 23.033 15.6752 23.2617 15.6379H23.2595Z" fill="#35A5C4"/>
<path d="M24.6448 16.0711C23.5761 16.192 22.503 16.3987 21.4849 16.722C20.9066 16.9045 19.9412 17.6257 20.3568 18.2964C20.6053 18.6966 21.6388 18.6856 22.0588 18.6527C23.4112 18.5493 24.7284 18.1271 25.8542 17.4454C26.2368 17.2145 26.9471 16.8341 26.5733 16.3415C26.2237 15.8798 25.155 16.0117 24.6448 16.0711Z" fill="black"/>
<path d="M14.8265 15.0706C13.9271 14.9035 12.9926 14.8661 12.1086 14.8639C11.9041 14.8639 11.693 14.8683 11.4995 14.9299C10.8376 15.1432 10.8222 15.9634 11.0993 16.4889C11.306 16.8781 11.6468 17.1772 11.9986 17.4433C13.1949 18.3492 14.9188 19.3542 16.4823 19.1562C17.0364 19.0859 17.7027 18.6483 17.883 18.0194C17.9908 17.639 17.9996 17.1178 17.9182 16.7286C17.8478 16.3966 17.4982 16.1547 17.2277 15.9788C16.5065 15.506 15.6819 15.2289 14.8287 15.0706H14.8265Z" fill="#35A5C4"/>
<path d="M13.7446 15.6556C14.5846 15.7765 15.429 15.9832 16.2294 16.3064C16.6846 16.489 17.4432 17.2102 17.1156 17.8809C16.9199 18.2811 16.1063 18.2701 15.7764 18.2371C14.7121 18.1338 13.6764 17.7116 12.7903 17.0299C12.489 16.799 11.9327 16.4186 12.2251 15.926C12.5 15.4642 13.3422 15.5962 13.7424 15.6556H13.7446Z" fill="black"/>
<path d="M27.9498 17.4608C28.6381 17.0188 29.3132 16.4229 29.3967 15.5587" stroke="black" stroke-width="0.439791" stroke-linecap="round" stroke-linejoin="round"/>
<mask id="mask2_341_931" style="mask-type:luminance" maskUnits="userSpaceOnUse" x="13" y="8" width="19" height="21">
<path d="M13.7886 21.1462C13.9315 23.9433 15.0442 27.9454 18.3624 28.2664C21.7026 28.5919 26.1115 24.8756 28.1126 22.5733C29.5089 20.9637 30.6084 19.1012 31.3604 17.1089C31.7628 16.0424 31.7342 15.3894 31.0965 14.4108C30.5644 13.5928 29.8036 12.9375 29.0449 12.3394C27.2308 10.9079 25.2341 9.6127 22.9824 9.09815C20.6581 8.5682 17.8325 9.4082 15.9985 11.3323C13.3576 14.103 13.6171 17.7708 13.7908 21.1462H13.7886Z" fill="white"/>
</mask>
<g mask="url(#mask2_341_931)">
<path d="M13.8831 19.4508C13.6281 19.3782 13.3048 19.3188 13.1091 19.4464C12.7881 19.6531 12.8848 20.1786 13.0673 20.4469C13.384 20.9131 13.8655 21.0758 14.3867 21.166C14.8111 21.2407 15.6929 21.3485 15.5631 20.6404C15.451 20.0357 14.5934 19.6773 14.0788 19.5123C14.0217 19.4948 13.9557 19.4728 13.8831 19.453V19.4508Z" fill="#DB463B"/>
<path d="M22.6658 20.3809C22.4173 20.4667 22.1204 20.5964 22.0347 20.7987C21.8961 21.1285 22.2831 21.4716 22.5888 21.5727C23.1187 21.7509 23.6025 21.6101 24.0797 21.3946C24.4667 21.2187 25.2451 20.8207 24.7218 20.3589C24.2776 19.9653 23.3694 20.1632 22.8571 20.3193C22.7999 20.3369 22.7339 20.3567 22.6636 20.3809H22.6658Z" fill="#DB463B"/>
</g>
<path d="M14.9122 27.2989C14.8243 28.2071 14.7803 29.1218 14.8023 30.0542C14.8309 31.1976 15.2553 32.4752 16.2382 33.1569C17.1288 33.7726 18.3008 33.7154 19.2728 33.335C20.2711 32.9436 20.6515 31.9827 20.9242 30.9799C21.2386 29.8211 21.2188 28.6029 21.243 27.4022C21.2826 25.2627 21.1507 21.254 18.0677 21.199C16.5637 21.1726 15.6137 22.5052 15.3916 23.8597C15.2003 25.0164 15.0244 26.1532 14.9144 27.2989H14.9122Z" fill="black"/>
<path d="M16.9023 24.0709C16.766 24.4667 16.7088 24.8999 16.8121 25.3067C16.9155 25.7113 17.1992 26.0851 17.5928 26.2281C18.0326 26.3886 18.5515 26.2391 18.888 25.9136C19.2244 25.5882 19.3937 25.1154 19.4113 24.647C19.4311 24.1721 19.2926 23.6707 18.9473 23.3409C18.1513 22.5844 17.1992 23.2023 16.9001 24.0709H16.9023Z" fill="#D49487"/>
<path d="M16.4977 24.0862C16.9837 24.5568 17.7049 24.7723 18.369 24.6447C19.0331 24.5172 19.6224 24.051 19.8995 23.4353C19.8665 23.4463 19.8335 23.4573 19.8005 23.4683" stroke="black" stroke-width="0.439791" stroke-linecap="round" stroke-linejoin="round"/>
<path d="M32.4973 17.9973C32.4621 17.5729 32.2906 17.1595 31.9607 16.8824C31.6353 16.6076 31.2087 16.4668 30.7821 16.4822C29.8739 16.5174 29.1966 17.1969 28.8844 18.0083C28.8646 18.0589 28.8624 18.1094 28.869 18.16C28.7129 18.7449 28.902 19.376 29.267 19.873C29.5309 20.2314 29.8563 20.5349 30.3313 20.5173C30.7755 20.4997 31.1625 20.2424 31.4989 19.9764C32.0971 19.5036 32.5632 18.7889 32.4951 17.9973H32.4973Z" fill="#D49487"/>
<path d="M31.9321 17.4454C31.4638 17.1749 30.8503 17.1749 30.3819 17.4476C29.9135 17.7202 29.61 18.2524 29.6144 18.7933" stroke="black" stroke-width="0.439791" stroke-linecap="round" stroke-linejoin="round"/>
<path d="M29.6122 16.9133C29.8915 16.6296 30.2719 16.4493 30.6677 16.4075C31.0635 16.3658 31.4726 16.4691 31.8046 16.689" stroke="black" stroke-width="0.439791" stroke-linecap="round" stroke-linejoin="round"/>
<path d="M28.5238 22.017C27.4463 24.1807 25.5816 25.9443 23.3584 26.8964" stroke="black" stroke-width="0.439791" stroke-linecap="round" stroke-linejoin="round"/>
<path d="M29.6342 20.3458C29.5023 20.2468 29.4385 20.0643 29.4781 19.9038" stroke="black" stroke-width="0.439791" stroke-linecap="round" stroke-linejoin="round"/>
</g>
</svg>
