<svg width="46" height="46" viewBox="0 0 46 46" fill="none" xmlns="http://www.w3.org/2000/svg">
<rect x="1" y="1" width="44" height="44" rx="22" stroke="black" stroke-width="2"/>
<path d="M37.809 37.8718C46.0049 29.6759 46.0049 16.3878 37.809 8.19195C29.6132 -0.00390527 16.3251 -0.00390459 8.1292 8.19195C-0.066658 16.3878 -0.0666532 29.6759 8.1292 37.8718C16.3251 46.0676 29.6132 46.0676 37.809 37.8718Z" fill="#ACE2DF"/>
<mask id="mask0_341_927" style="mask-type:luminance" maskUnits="userSpaceOnUse" x="1" y="2" width="43" height="43">
<path d="M37.809 37.8718C46.0049 29.6759 46.0049 16.3878 37.809 8.19195C29.6132 -0.00390527 16.3251 -0.00390459 8.1292 8.19195C-0.066658 16.3878 -0.0666532 29.6759 8.1292 37.8718C16.3251 46.0676 29.6132 46.0676 37.809 37.8718Z" fill="white"/>
</mask>
<g mask="url(#mask0_341_927)">
<path d="M45.7284 41.3128C45.7284 38.0605 45.2072 33.5967 43.3381 31.0635C39.0853 25.3 32.4159 25.6409 25.7355 25.8366C20.502 25.9905 15.1321 26.2698 10.334 28.3654C5.64586 30.4104 2.58932 36.2596 1.98241 41.3128C14.0986 48.776 28.8096 48.3846 45.7284 41.3128Z" fill="#3B8A6E"/>
<path d="M24.3677 10.6242C22.1622 10.7166 19.7939 10.8705 18.0677 12.2471C16.5725 13.4389 15.8292 15.3784 15.6775 17.2849C15.3982 20.7504 15.6379 26.1312 18.8352 28.2708C22.967 31.0371 29.1483 27.93 31.6749 24.3633C32.8359 22.7251 33.3131 20.7702 33.2361 18.7757C33.1679 16.9594 32.6798 15.1827 32.0575 13.4741C31.908 13.0629 31.7474 12.6495 31.4792 12.3042C29.8959 10.268 26.6305 10.5297 24.3655 10.6242H24.3677Z" fill="#F4947D"/>
<path d="M19.6246 18.2305C19.6246 18.5779 19.3431 18.8594 18.9957 18.8594C18.6483 18.8594 18.3668 18.5779 18.3668 18.2305C18.3668 17.883 18.6483 17.6016 18.9957 17.6016C19.3431 17.6016 19.6246 17.883 19.6246 18.2305Z" fill="black"/>
<path d="M29.0295 18.2305C29.0295 18.5779 28.7481 18.8594 28.4006 18.8594C28.0532 18.8594 27.7717 18.5779 27.7717 18.2305C27.7717 17.883 28.0532 17.6016 28.4006 17.6016C28.7481 17.6016 29.0295 17.883 29.0295 18.2305Z" fill="black"/>
<path d="M20.8736 23.7916C21.2232 24.4425 21.9907 24.8405 22.7229 24.7525C23.4552 24.6646 24.1083 24.0972 24.2952 23.3826" stroke="black" stroke-width="0.439791" stroke-linecap="round" stroke-linejoin="round"/>
<path d="M31.3956 8.59461C31.6067 8.3945 31.8112 8.18341 31.9519 7.93053C32.1169 7.62927 32.1806 7.25105 32.0311 6.9432C31.8156 6.49901 31.2615 6.34728 30.7711 6.3143C29.4715 6.22414 28.1455 6.62655 27.1164 7.42257C27.565 7.17189 27.5057 6.43744 27.101 6.12079C26.6964 5.80414 26.1181 5.82613 25.6277 5.98006C24.8493 6.22414 24.1698 6.76728 23.7608 7.47315C24.1127 6.86404 23.0066 6.68372 22.6811 6.75849C22.1028 6.89263 21.5905 7.29283 21.4277 7.88215C21.5641 7.42917 21.1639 6.9366 20.6977 6.86624C20.2293 6.79367 19.7609 7.05754 19.4575 7.42037C19.154 7.7832 18.9847 8.23838 18.822 8.68257C18.5713 8.08226 17.6741 7.95692 17.1728 8.37032C16.6714 8.78152 16.5615 9.54236 16.7748 10.1559C16.9881 10.7694 17.4652 11.2553 17.9798 11.6534C18.6681 12.1855 19.3959 12.6759 20.2733 12.6363C21.9027 12.5615 23.5365 12.467 25.1704 12.3108C26.3534 12.1987 27.5672 12.1305 28.7129 12.4406C29.6936 12.7067 30.8129 13.3466 31.2461 14.3163C31.71 15.3542 32.2928 16.3701 32.6204 17.4806C33.003 18.7802 33.0206 20.1567 33.036 21.5135C33.3813 19.3035 33.7265 17.0958 34.0717 14.8858C34.1949 14.0898 34.3048 13.2916 34.2564 12.489C34.2344 12.1437 33.8298 10.8243 33.1965 11.1366C33.7067 10.8859 34.2696 10.5693 34.4104 10.0195C34.5819 9.35105 33.9882 8.68037 33.3197 8.51105C32.6512 8.33953 31.9497 8.52644 31.2856 8.71115C31.3252 8.67597 31.3626 8.63859 31.4022 8.60341L31.3956 8.59461Z" fill="black"/>
<path d="M34.6896 18.6394C34.6896 18.6394 33.1591 16.8253 32.3829 16.2206C32.3191 16.3569 32.3104 16.6296 32.2356 16.7615C32.1652 16.8869 32.3609 17.2739 32.2884 17.4014C32.9019 18.1381 33.1943 18.5603 34.0079 19.1188C34.1993 19.2507 34.6896 18.6416 34.6896 18.6416V18.6394Z" fill="#964136"/>
<path d="M16.0799 11.638C15.8094 12.0646 15.5917 12.5396 15.429 13.0629C15.1871 13.8391 14.3339 17.0958 15.0222 17.5554C16.0337 18.2305 16.5087 15.2377 16.8077 14.6835C17.3069 13.7578 18.0963 12.942 19.1035 12.6407C19.95 12.3878 20.856 12.5176 21.74 12.5242C22.624 12.5308 23.5937 12.368 24.172 11.6996C24.5744 11.2356 24.7174 10.5979 24.7504 9.98438C24.7789 9.47422 24.724 8.92008 24.3897 8.53307C23.9323 8.00312 23.1297 7.97014 22.4349 8.0493C19.9742 8.32857 17.4344 9.49181 16.0821 11.638H16.0799Z" fill="black"/>
<path d="M35.5054 18.8659C35.2438 18.4701 34.7886 18.1864 34.2806 18.0017C33.6605 17.7752 32.9173 17.8148 32.3917 18.215C32.0289 18.492 31.7958 18.9164 31.6925 19.3606C31.4836 20.26 31.743 21.454 32.6974 21.8301C33.1064 21.9906 33.5814 21.9488 33.9904 21.8125C34.8941 21.5112 35.589 20.8273 35.7231 19.8686C35.7781 19.475 35.6902 19.1407 35.5076 18.8637L35.5054 18.8659Z" fill="#F4947D"/>
<path d="M14.3823 17.3223C14.0085 17.4322 13.7028 17.7203 13.5071 18.0567C13.0475 18.8461 13.1993 19.95 13.8743 20.5657C14.5494 21.1814 15.6841 21.221 16.3833 20.6317C16.9946 20.1193 17.2959 18.9561 16.7352 18.3008C16.2558 17.7423 15.1014 17.109 14.3801 17.3223H14.3823Z" fill="#F4947D"/>
<path d="M34.3972 19.077C33.9662 18.8 33.3747 18.7934 32.9393 19.0616C32.5017 19.3299 32.24 19.8577 32.2906 20.3678" stroke="black" stroke-width="0.439791" stroke-linecap="round" stroke-linejoin="round"/>
<path d="M14.1756 18.7823C14.4461 18.4239 14.9452 18.2568 15.3784 18.3799C15.8094 18.503 16.1459 18.9121 16.1832 19.3584" stroke="black" stroke-width="0.439791" stroke-linecap="round" stroke-linejoin="round"/>
<path d="M21.685 28.062C22.0193 27.9608 22.3557 27.8619 22.69 27.7607" stroke="black" stroke-width="0.439791" stroke-linecap="round" stroke-linejoin="round"/>
<path d="M28.5238 27.4463C29.8783 26.5425 30.9998 25.3265 31.8926 23.9719" stroke="black" stroke-width="0.439791" stroke-linecap="round" stroke-linejoin="round"/>
<path d="M23.1407 17.4235C22.9846 18.2701 22.8285 19.1167 22.6724 19.9632C22.3733 20.0468 22.061 20.137 21.8301 20.3459C21.5993 20.5526 21.4739 20.9154 21.6344 21.1837C21.7378 21.3574 21.9357 21.4541 22.1358 21.4827C22.3337 21.5113 22.536 21.4827 22.7361 21.4519" stroke="black" stroke-width="0.439791" stroke-linecap="round" stroke-linejoin="round"/>
<path d="M25.3771 18.4328C25.4628 18.9341 25.852 19.3519 26.3138 19.5652C26.7778 19.7785 27.3077 19.8071 27.8135 19.7455C28.7986 19.6246 29.7398 19.165 30.4391 18.4613C30.7491 18.1513 31.024 17.6873 30.8261 17.2959C30.6502 16.9485 30.2038 16.8605 29.819 16.8121C28.7679 16.6824 27.675 16.5505 26.6305 16.7967C25.9114 16.9683 25.2341 17.6213 25.3749 18.4306L25.3771 18.4328Z" fill="black"/>
<path d="M24.0841 16.8715C23.9543 17.1002 23.785 17.2805 23.5717 17.4103C23.4332 17.4938 23.3672 17.5246 23.2309 17.5664C23.0616 17.617 23.0022 17.628 22.8395 17.628C22.58 17.628 22.3315 17.562 22.1028 17.4301C21.828 17.2695 21.6828 17.0386 21.4607 16.7814C21.3046 16.5988 20.9924 16.6208 20.8318 16.7814C20.6515 16.9617 20.6757 17.2277 20.8318 17.4103C20.9638 17.5642 21.0693 17.7357 21.2189 17.8742C21.3684 18.0128 21.5377 18.1381 21.718 18.2349C22.0742 18.424 22.4832 18.5317 22.8878 18.5163C23.6971 18.4899 24.4513 18.026 24.8493 17.3223C25.1308 16.8231 24.3633 16.3746 24.0819 16.8737L24.0841 16.8715Z" fill="#964136"/>
<path d="M32.3851 16.2205C32.3324 16.2029 32.2752 16.1941 32.2202 16.1919C31.5649 16.148 30.9118 16.104 30.2543 16.0666C28.3325 15.9567 26.0192 16.1414 24.1017 16.2843C23.9016 16.2997 23.8818 17.4146 23.895 17.5575C23.9258 17.9335 24.0071 18.3183 24.15 18.668C24.4469 19.3914 25.0076 20.0115 25.7157 20.3502C26.9075 20.9219 28.4556 20.7592 29.6056 20.1545C30.162 19.8642 30.6677 19.4574 30.9932 18.9121C31.0811 18.7647 31.5847 17.4256 31.5297 17.4278C31.7826 17.4168 32.0377 17.4058 32.2906 17.3948C32.3653 17.0034 32.4115 16.6075 32.3851 16.2161V16.2205Z" fill="#964136"/>
<path d="M30.593 16.8627C30.5644 16.6274 30.3247 16.722 30.0894 16.7132C29.9135 16.7066 29.7398 16.6934 29.5639 16.6824C28.073 16.601 26.2764 16.7373 24.7877 16.8407C24.6338 16.8517 24.6184 17.6675 24.6272 17.7731C24.6514 18.0479 24.7152 18.3294 24.8251 18.5867C25.056 19.1166 25.4914 19.5696 26.0412 19.8181C26.9669 20.2381 28.1675 20.1171 29.0603 19.6752C30.2148 19.1034 30.4918 18.1183 30.593 16.9704C30.5974 16.9265 30.5974 16.8913 30.593 16.8605V16.8627Z" fill="black"/>
<path d="M14.125 16.2205C14.1712 16.2029 14.2218 16.1941 14.2723 16.1919C14.8551 16.148 15.4378 16.104 16.0205 16.0666C17.7313 15.9567 19.7895 16.1414 21.4959 16.2843C21.674 16.2997 21.6916 17.4146 21.6806 17.5575C21.6542 17.9335 21.5795 18.3183 21.4519 18.668C21.1881 19.3914 20.6889 20.0115 20.0578 20.3502C18.9979 20.9219 17.6192 20.7592 16.5966 20.1545C16.1019 19.8642 15.6511 19.4574 15.363 18.9121C15.2839 18.7647 14.8353 17.4256 14.8859 17.4278C14.6594 17.4168 14.4351 17.4058 14.2086 17.3948C14.1426 17.0034 14.1008 16.6075 14.125 16.2161V16.2205Z" fill="#964136"/>
<path d="M15.7193 16.8627C15.7457 16.6274 15.9568 16.722 16.1679 16.7132C16.324 16.7066 16.4801 16.6934 16.6362 16.6824C17.9644 16.601 19.563 16.7373 20.8868 16.8407C21.0253 16.8517 21.0385 17.6675 21.0297 17.7731C21.0077 18.0479 20.9528 18.3294 20.8538 18.5867C20.6493 19.1166 20.2601 19.5696 19.7719 19.8181C18.9495 20.2381 17.8786 20.1171 17.0848 19.6752C16.0579 19.1034 15.8116 18.1183 15.7215 16.9704C15.7171 16.9265 15.7193 16.8913 15.7215 16.8605L15.7193 16.8627Z" fill="black"/>
<path d="M33.412 10.9233C32.8557 11.1454 32.2994 11.3675 31.7452 11.5896" stroke="#35A5C4" stroke-width="0.439791" stroke-linecap="round" stroke-linejoin="round"/>
<path d="M31.466 8.25378C31.0768 8.51326 30.6875 8.77274 30.2983 9.03222" stroke="#35A5C4" stroke-width="0.439791" stroke-linecap="round" stroke-linejoin="round"/>
<path d="M27.2902 7.46655C27.0483 7.63367 26.8548 7.87336 26.7448 8.14604" stroke="#35A5C4" stroke-width="0.439791" stroke-linecap="round" stroke-linejoin="round"/>
<path d="M24.1281 7.14331C23.8686 7.66226 23.6091 8.18121 23.3496 8.70017" stroke="#35A5C4" stroke-width="0.439791" stroke-linecap="round" stroke-linejoin="round"/>
<path d="M21.4036 7.2533C21.386 7.78984 21.3662 8.32858 21.3486 8.86513" stroke="#35A5C4" stroke-width="0.439791" stroke-linecap="round" stroke-linejoin="round"/>
<path d="M18.7362 7.80957C18.811 8.25376 18.8836 8.69794 18.9583 9.14433" stroke="#35A5C4" stroke-width="0.439791" stroke-linecap="round" stroke-linejoin="round"/>
<path d="M17.3949 10.7034C17.8896 11.5456 18.7714 12.1503 19.7367 12.3108" stroke="#35A5C4" stroke-width="0.439791" stroke-linecap="round" stroke-linejoin="round"/>
<path d="M28.9392 45.846C31.7267 43.0585 31.7267 38.5391 28.9392 35.7516C26.1517 32.9641 21.6323 32.9642 18.8448 35.7516C16.0573 38.5391 16.0573 43.0585 18.8448 45.846C21.6323 48.6335 26.1517 48.6335 28.9392 45.846Z" fill="white"/>
<path d="M16.7352 12.1459C17.032 12.313 17.3289 12.4801 17.6236 12.6472" stroke="#35A5C4" stroke-width="0.439791" stroke-linecap="round" stroke-linejoin="round"/>
<path d="M25.8168 36.1211H22.4986C22.4546 36.1211 22.4151 36.1431 22.3931 36.1805C21.6366 37.5108 19.6532 40.9588 19.1716 41.7944C19.1232 41.8779 19.1848 41.9791 19.2794 41.9791H23.2529C23.3496 41.9791 23.409 42.0847 23.3584 42.1682L19.2794 48.875C19.2024 49.0004 19.3695 49.1323 19.4729 49.0267L28.5963 39.8395C28.6733 39.7626 28.6205 39.6284 28.5106 39.6284L23.3452 39.5493C23.2397 39.5493 23.1847 39.4217 23.2529 39.3426L25.907 36.3278C25.9774 36.2464 25.9202 36.1211 25.8146 36.1211H25.8168Z" fill="#FFB300"/>
<path d="M28.1324 39.5757C26.448 39.5647 24.7613 39.5647 23.077 39.5427" stroke="black" stroke-width="0.439791" stroke-linecap="round" stroke-linejoin="round"/>
<path d="M22.4986 46.0273C23.2881 45.2291 26.261 42.2166 27.0483 41.4139" stroke="black" stroke-width="0.439791" stroke-linecap="round" stroke-linejoin="round"/>
<path d="M20.1809 41.9791H23.4728" stroke="black" stroke-width="0.439791" stroke-linecap="round" stroke-linejoin="round"/>
<path d="M22.4239 36.1211H26.0917" stroke="black" stroke-width="0.439791" stroke-linecap="round" stroke-linejoin="round"/>
<path d="M13.1905 27.3253C13.9447 34.0937 10.2813 41.1479 4.3111 44.4244" stroke="black" stroke-width="0.439791" stroke-linecap="round" stroke-linejoin="round"/>
<path d="M34.8919 26.2874C34.428 32.2531 36.871 38.3772 41.3107 42.3859" stroke="black" stroke-width="0.439791" stroke-linecap="round" stroke-linejoin="round"/>
</g>
</svg>
