<svg width="46" height="46" viewBox="0 0 46 46" fill="none" xmlns="http://www.w3.org/2000/svg">
<rect x="1" y="1" width="44" height="44" rx="22" stroke="black" stroke-width="2"/>
<path d="M37.8088 37.8056C46.0046 29.6098 46.0046 16.3216 37.8088 8.12579C29.6129 -0.0700674 16.3248 -0.0700667 8.12895 8.12579C-0.0669097 16.3216 -0.066905 29.6098 8.12895 37.8056C16.3248 46.0015 29.6129 46.0015 37.8088 37.8056Z" fill="#ACE2DF"/>
<mask id="mask0_341_929" style="mask-type:luminance" maskUnits="userSpaceOnUse" x="1" y="1" width="43" height="43">
<path d="M37.8088 37.8056C46.0046 29.6098 46.0046 16.3216 37.8088 8.12579C29.6129 -0.0700674 16.3248 -0.0700667 8.12895 8.12579C-0.0669097 16.3216 -0.066905 29.6098 8.12895 37.8056C16.3248 46.0015 29.6129 46.0015 37.8088 37.8056Z" fill="white"/>
</mask>
<g mask="url(#mask0_341_929)">
<path d="M47.7712 45.713C47.6525 42.1023 46.995 37.6758 45.139 35.0459C40.4179 28.3479 33.0096 28.7415 25.5925 28.9702C19.7807 29.1483 13.8194 29.4737 8.4891 31.908C3.64921 34.1201 0.372766 40.1541 -0.603569 45.713H47.769H47.7712Z" fill="#8F5F56"/>
<path d="M45.4953 40.6049C42.3706 40.8798 38.8632 40.0838 36.7017 37.6781C35.523 36.3675 34.9029 34.7271 34.6522 33.0009C34.4653 31.7058 34.4411 30.3974 34.3928 29.0912C31.5781 28.7592 28.5875 28.8779 25.5925 28.9703C20.6779 29.122 15.6577 29.3837 11.0025 30.9295C10.853 32.5238 10.4682 34.0982 9.86124 35.5803C9.21475 37.1592 8.32418 38.6259 7.23789 39.9408C6.3825 40.9765 5.3446 41.8012 4.078 42.2673C2.8092 42.7335 1.40847 42.8523 0.0627096 42.9622C-0.216557 43.8792 -0.440848 44.8027 -0.601372 45.7153H47.7712C47.7162 44.0155 47.5381 42.1354 47.1731 40.3454C46.6189 40.473 46.056 40.5587 45.4953 40.6071V40.6049Z" fill="#E0B8FF"/>
<mask id="mask1_341_929" style="mask-type:luminance" maskUnits="userSpaceOnUse" x="-1" y="28" width="49" height="18">
<path d="M45.4953 40.6049C42.3706 40.8798 38.8632 40.0838 36.7017 37.6781C35.523 36.3675 34.9029 34.7271 34.6522 33.0009C34.4653 31.7058 34.4411 30.3974 34.3928 29.0912C31.5781 28.7592 28.5875 28.8779 25.5925 28.9703C20.6779 29.122 15.6577 29.3837 11.0025 30.9295C10.853 32.5238 10.4682 34.0982 9.86124 35.5803C9.21475 37.1592 8.32418 38.6259 7.23789 39.9408C6.3825 40.9765 5.3446 41.8012 4.078 42.2673C2.8092 42.7335 1.40847 42.8523 0.0627096 42.9622C-0.216557 43.8792 -0.440848 44.8027 -0.601372 45.7153H47.7712C47.7162 44.0155 47.5381 42.1354 47.1731 40.3454C46.6189 40.473 46.056 40.5587 45.4953 40.6071V40.6049Z" fill="white"/>
</mask>
<g mask="url(#mask1_341_929)">
<path d="M48.7563 28.0137C31.3164 31.8245 13.3796 32.9063 -4.3418 31.2153" stroke="white" stroke-width="0.439791" stroke-linecap="round" stroke-linejoin="round"/>
<path d="M48.7761 30.3071C31.3362 34.1179 13.3994 35.1998 -4.32201 33.5088" stroke="white" stroke-width="0.439791" stroke-linecap="round" stroke-linejoin="round"/>
<path d="M48.7937 32.6029C31.3538 36.4137 13.4169 37.4956 -4.30442 35.8046" stroke="white" stroke-width="0.439791" stroke-linecap="round" stroke-linejoin="round"/>
<path d="M48.8135 34.8964C31.3736 38.7071 13.4367 39.789 -4.28462 38.098" stroke="white" stroke-width="0.439791" stroke-linecap="round" stroke-linejoin="round"/>
<path d="M48.8311 37.1899C31.3912 41.0007 13.4543 42.0826 -4.26704 40.3916" stroke="white" stroke-width="0.439791" stroke-linecap="round" stroke-linejoin="round"/>
<path d="M48.8509 39.4856C31.411 43.2964 13.4741 44.3783 -4.24725 42.6873" stroke="white" stroke-width="0.439791" stroke-linecap="round" stroke-linejoin="round"/>
</g>
<path d="M15.5609 32.3171C15.3608 31.4353 15.3938 30.3732 16.0425 29.7861C16.7352 29.1616 17.8654 29.4034 18.5031 30.0939C19.1408 30.7844 19.3783 31.7871 19.4685 32.7502C19.5169 33.267 19.4773 36.5522 19.8643 36.7567C17.8588 35.6133 16.1393 34.8854 15.5587 32.3171H15.5609Z" fill="#F55540"/>
<path d="M12.4824 30.228C11.2818 31.6155 11.583 33.9574 10.1911 35.1515C11.6666 35.4879 13.3026 35.0063 14.3603 33.9244C15.2487 33.0163 15.9809 31.2593 15.5741 29.9663C15.1453 28.5986 13.1531 29.4496 12.4824 30.2258V30.228Z" fill="#F55540"/>
<mask id="mask2_341_929" style="mask-type:luminance" maskUnits="userSpaceOnUse" x="15" y="29" width="5" height="8">
<path d="M15.5609 32.3171C15.3608 31.4353 15.3938 30.3732 16.0425 29.7861C16.7352 29.1616 17.8654 29.4034 18.5031 30.0939C19.1408 30.7844 19.3783 31.7871 19.4685 32.7502C19.5169 33.267 19.4773 36.5522 19.8643 36.7567C17.8588 35.6133 16.1393 34.8854 15.5587 32.3171H15.5609Z" fill="white"/>
</mask>
<g mask="url(#mask2_341_929)">
<path d="M20.0798 34.6765C20.1545 35.2636 19.7389 35.8002 19.1518 35.875C18.5647 35.9497 18.0281 35.5341 17.9534 34.947C17.8786 34.3599 18.2942 33.8233 18.8813 33.7486C19.4685 33.6738 20.005 34.0894 20.0798 34.6765Z" fill="#FFB300"/>
<path d="M16.8803 32.4555C16.8803 33.0471 16.4009 33.5286 15.8072 33.5286C15.2135 33.5286 14.7341 33.0493 14.7341 32.4555C14.7341 31.8618 15.2135 31.3824 15.8072 31.3824C16.4009 31.3824 16.8803 31.8618 16.8803 32.4555Z" fill="#FFB300"/>
</g>
<mask id="mask3_341_929" style="mask-type:luminance" maskUnits="userSpaceOnUse" x="10" y="29" width="6" height="7">
<path d="M12.4824 30.228C11.2818 31.6155 11.583 33.9574 10.1911 35.1515C11.6666 35.4879 13.3026 35.0063 14.3603 33.9244C15.2487 33.0163 15.9809 31.2593 15.5741 29.9663C15.1453 28.5986 13.1531 29.4496 12.4824 30.2258V30.228Z" fill="white"/>
</mask>
<g mask="url(#mask3_341_929)">
<path d="M13.8216 30.3094C13.8216 30.9009 13.3422 31.3825 12.7485 31.3825C12.1547 31.3825 11.6754 30.9031 11.6754 30.3094C11.6754 29.7157 12.1547 29.2363 12.7485 29.2363C13.3422 29.2363 13.8216 29.7157 13.8216 30.3094Z" fill="#FFB300"/>
<path d="M13.8216 34.8128C13.8216 35.4044 13.3422 35.8859 12.7485 35.8859C12.1547 35.8859 11.6754 35.4066 11.6754 34.8128C11.6754 34.2191 12.1547 33.7397 12.7485 33.7397C13.3422 33.7397 13.8216 34.2191 13.8216 34.8128Z" fill="#FFB300"/>
</g>
<path d="M26.239 28.3721C25.2495 29.012 24.161 29.5243 23.2001 29.9267C21.1551 30.7865 18.9473 31.2659 16.7286 31.3077C16.0865 31.3187 15.3696 31.2637 14.9364 30.7887C14.666 30.4919 14.5582 30.0521 14.6638 29.6629C14.7671 29.2737 15.0794 28.946 15.462 28.8251C15.1871 28.6228 15.0486 28.2489 15.1299 27.9169C15.2971 27.2308 16.1788 27.2132 16.7264 27.0021C17.3311 26.7668 17.8918 26.415 18.3646 25.9708C18.8352 25.531 19.3519 25.2364 19.8841 24.8692C20.9792 24.1127 21.9753 23.2155 22.8351 22.1996C23.9148 20.9264 25.1726 20.0337 26.294 18.7956C26.7118 18.3339 27.1802 17.8457 27.7959 17.7467C29.4913 17.4785 30.0586 19.341 30.2214 20.667C30.3159 21.452 30.4325 22.4833 30.1158 23.2265C29.72 24.1545 29.1791 25.254 28.6491 26.0984C28.0884 26.9911 27.2132 27.741 26.2412 28.3699L26.239 28.3721Z" fill="#F55540"/>
<path d="M12.6451 12.0801C11.1696 14.9541 10.3934 18.1844 10.4 21.4168C10.4066 23.9302 11.5258 27.5145 14.5032 27.8048C17.5004 28.0951 21.4541 24.7636 23.2485 22.6988C25.6431 19.9413 27.0614 16.3504 27.2 12.7002" fill="#8F5F56"/>
<path d="M25.4474 17.8193C24.1566 17.8897 22.8681 17.9578 21.5773 18.0282C21.0979 18.0546 21.0935 18.8044 21.5773 18.778C22.8681 18.7077 24.1566 18.6395 25.4474 18.5691C25.9268 18.5427 25.9312 17.7929 25.4474 17.8193Z" fill="#3B8A6E"/>
<path d="M19.0771 10.7057C19.7653 10.7673 20.7285 10.8267 21.353 11.1345C22.657 11.7766 23.5673 13.7601 23.8774 15.086C24.2798 16.8056 24.1259 18.6044 23.5343 20.2624C23.1385 21.3772 22.8461 22.3712 22.1622 23.3629C21.4805 24.3502 20.6383 25.2276 19.6774 25.9467C19.9478 25.7444 20.2579 27.851 20.2623 27.9631C20.3041 29.045 19.0177 30.0235 19.0441 31.1054C26.6569 30.4633 33.1614 29.0054 39.402 26.8416C38.6697 23.0572 37.3196 19.3938 35.4285 16.036C33.7463 13.0498 30.6545 10.6881 27.4485 9.46991C23.8664 8.11096 19.5696 8.39462 16.4955 10.6815C16.9001 10.3803 18.5735 10.6617 19.0771 10.7057Z" fill="#F55540"/>
<path d="M11.8931 12.0911C11.4423 12.4231 10.9783 13.019 11.295 13.4808C11.4753 13.7447 11.8315 13.8106 12.1482 13.8458C15.3235 14.2109 18.5801 13.8502 21.5993 12.7991C21.9511 13.5226 22.3315 14.279 22.9956 14.732C23.6619 15.185 24.7042 15.1872 25.1594 14.5253C25.5662 13.9316 25.3419 13.1136 24.99 12.4869C24.2468 11.1609 22.9868 10.1362 21.5377 9.67882C19.9676 9.18185 18.4218 9.44573 16.9067 9.95588C15.1321 10.5562 13.4345 10.952 11.8931 12.0911Z" fill="black"/>
<path d="M15.3432 18.7231C14.6989 19.1365 14.1316 19.6665 13.6764 20.28C13.4939 20.5263 13.3224 20.8319 13.4104 21.1244C13.5049 21.441 13.8809 21.6038 14.2108 21.5686C14.5406 21.5334 14.8331 21.3509 15.1123 21.1728" stroke="black" stroke-width="0.439791" stroke-linecap="round" stroke-linejoin="round"/>
<path d="M13.8611 23.75C14.1008 23.4927 14.3537 23.2288 14.6791 23.0969C15.0046 22.9649 15.429 23.0001 15.6467 23.2772C15.9523 23.6642 15.6995 24.2359 15.3828 24.6141C15.053 25.0078 14.6418 25.353 14.1492 25.4959C13.0981 25.8016 12.2933 24.999 12.3878 23.9479C12.4714 23.0221 13.8875 22.6329 13.8611 23.75Z" fill="#F55540"/>
<path d="M11.9547 23.9148C12.5572 24.4272 13.3708 24.6867 14.158 24.6141C14.9452 24.5415 15.6995 24.1413 16.1986 23.5278" stroke="black" stroke-width="0.439791" stroke-linecap="round" stroke-linejoin="round"/>
<path d="M17.1706 18.136C15.882 18.0876 14.5912 18.081 13.3004 18.1162C12.8188 18.1294 12.8166 18.8793 13.3004 18.8661C14.5912 18.8309 15.8798 18.8397 17.1706 18.8858C17.6521 18.9034 17.6521 18.1536 17.1706 18.136Z" fill="#3B8A6E"/>
<path d="M19.3343 15.8996C19.6576 15.6204 20.0314 15.4268 20.469 15.5192C20.8252 15.594 21.1331 15.937 21.0891 16.2976C21.397 15.8117 22.3117 15.0816 22.8813 15.6072C23.1495 15.8556 22.9098 16.4384 22.7647 16.6978C22.989 16.4735 23.2243 16.2427 23.5255 16.1481C23.8268 16.0535 24.2138 16.1481 24.3435 16.4362C24.5085 16.8012 24.1918 17.197 23.8884 17.4587C23.0308 18.1997 22.0544 18.8022 21.0121 19.2464C20.049 19.6554 18.8088 20.1216 17.7467 20.0051C17.1772 19.9435 16.4911 19.5499 16.3064 18.9847C16.1261 18.4328 16.3504 17.6346 16.623 17.142C16.9023 16.6363 17.3993 16.2251 17.9732 16.1613C18.1381 16.1437 18.3162 16.1569 18.4548 16.2471C18.5933 16.3394 18.6768 16.5263 18.6109 16.678C18.822 16.4384 19.0617 16.1371 19.3365 15.8996H19.3343Z" fill="#3B8A6E"/>
<path d="M20.5591 16.8649C19.695 16.9749 18.8286 17.1596 18.004 17.4476C17.5356 17.6126 16.755 18.259 17.0914 18.8594C17.2915 19.22 18.1293 19.209 18.4679 19.1804C19.5608 19.0881 20.6251 18.7076 21.5377 18.0985C21.8455 17.8918 22.4195 17.551 22.1182 17.109C21.8367 16.6956 20.9704 16.8143 20.5591 16.8649Z" fill="black"/>
<path d="M11.0223 15.5412C10.9871 15.5082 10.9497 15.4753 10.9124 15.4445C10.6287 15.2136 10.2549 15.0685 9.89863 15.1454C9.5424 15.2202 9.23454 15.5632 9.27852 15.9238C8.97067 15.4379 8.05591 14.7078 7.48638 15.2334C7.21811 15.4819 7.45779 16.0646 7.60292 16.3241C7.37863 16.0998 7.14335 15.8689 6.84209 15.7743C6.54083 15.6798 6.15381 15.7743 6.02407 16.0624C5.85915 16.4274 6.1758 16.8232 6.47926 17.0849C7.33685 17.8259 8.31319 18.4285 9.35549 18.8726C10.3186 19.2817 11.5588 19.7478 12.6209 19.6313C13.1905 19.5697 13.8765 19.1761 14.0612 18.611C14.235 18.0766 14.0942 17.3949 13.8128 16.9178C13.6039 16.5637 13.307 16.2669 12.9838 16.0118C12.7441 15.8227 12.4626 15.6468 12.157 15.6578C11.8601 15.6688 11.5588 15.926 11.605 16.2405C11.4907 16.1855 11.4247 16.0162 11.3499 15.9173C11.2488 15.7831 11.1432 15.6556 11.0223 15.5412Z" fill="#3B8A6E"/>
<path d="M9.81067 16.4911C10.6749 16.6011 11.5412 16.7858 12.3659 17.0739C12.8342 17.2388 13.6148 17.8853 13.2784 18.4856C13.0783 18.8462 12.2405 18.8352 11.9019 18.8066C10.809 18.7143 9.7447 18.3339 8.83213 17.7247C8.52428 17.518 7.95035 17.1772 8.25161 16.7352C8.53307 16.3218 9.39947 16.4406 9.81067 16.4911Z" fill="black"/>
<path d="M23.4794 17.8237C22.978 18.147 22.4788 18.468 21.9775 18.7913" stroke="black" stroke-width="0.439791" stroke-linecap="round" stroke-linejoin="round"/>
<path d="M24.1764 17.2719C24.0247 19.495 23.2771 21.6764 22.0324 23.5257" stroke="black" stroke-width="0.439791" stroke-linecap="round" stroke-linejoin="round"/>
<mask id="mask4_341_929" style="mask-type:luminance" maskUnits="userSpaceOnUse" x="16" y="8" width="24" height="24">
<path d="M19.0771 10.7057C19.7653 10.7673 20.7285 10.8267 21.353 11.1345C22.657 11.7766 23.5673 13.7601 23.8774 15.086C24.2798 16.8056 24.1259 18.6044 23.5343 20.2624C23.1385 21.3772 22.8461 22.3712 22.1622 23.3629C21.4805 24.3502 20.6383 25.2276 19.6774 25.9467C19.9478 25.7444 20.2579 27.851 20.2623 27.9631C20.3041 29.045 19.0177 30.0235 19.0441 31.1054C26.6569 30.4633 33.1614 29.0054 39.402 26.8416C38.6697 23.0572 37.3196 19.3938 35.4285 16.036C33.7463 13.0498 30.6545 10.6881 27.4485 9.46991C23.8664 8.11096 19.5696 8.39462 16.4955 10.6815C16.9001 10.3803 18.5735 10.6617 19.0771 10.7057Z" fill="white"/>
</mask>
<g mask="url(#mask4_341_929)">
<path d="M34.5511 19.794C34.5511 20.3856 34.0717 20.8671 33.478 20.8671C32.8843 20.8671 32.4049 20.3878 32.4049 19.794C32.4049 19.2003 32.8843 18.7209 33.478 18.7209C34.0717 18.7209 34.5511 19.2003 34.5511 19.794Z" fill="#FFB300"/>
<path d="M27.5232 16.124C27.5232 16.7155 27.0439 17.1971 26.4502 17.1971C25.8564 17.1971 25.3771 16.7177 25.3771 16.124C25.3771 15.5303 25.8564 15.0509 26.4502 15.0509C27.0439 15.0509 27.5232 15.5303 27.5232 16.124Z" fill="#FFB300"/>
<path d="M39.402 20.8672C39.402 21.4587 38.9226 21.9402 38.3289 21.9402C37.7352 21.9402 37.2558 21.4609 37.2558 20.8672C37.2558 20.2734 37.7352 19.7941 38.3289 19.7941C38.9226 19.7941 39.402 20.2734 39.402 20.8672Z" fill="#FFB300"/>
<path d="M34.9733 24.5174C34.9733 25.1089 34.4939 25.5905 33.9002 25.5905C33.3065 25.5905 32.8271 25.1111 32.8271 24.5174C32.8271 23.9237 33.3065 23.4443 33.9002 23.4443C34.4939 23.4443 34.9733 23.9237 34.9733 24.5174Z" fill="#FFB300"/>
<path d="M38.5576 27.077C38.5576 27.6685 38.0782 28.1501 37.4845 28.1501C36.8908 28.1501 36.4114 27.6707 36.4114 27.077C36.4114 26.4833 36.8908 26.0039 37.4845 26.0039C38.0782 26.0039 38.5576 26.4833 38.5576 27.077Z" fill="#FFB300"/>
<path d="M23.3188 30.3643C23.3188 30.9559 22.8395 31.4374 22.2458 31.4374C21.652 31.4374 21.1727 30.9581 21.1727 30.3643C21.1727 29.7706 21.652 29.2913 22.2458 29.2913C22.8395 29.2913 23.3188 29.7706 23.3188 30.3643Z" fill="#FFB300"/>
<path d="M31.7848 29.0099C31.7848 29.6014 31.3054 30.0829 30.7117 30.0829C30.118 30.0829 29.6386 29.6036 29.6386 29.0099C29.6386 28.4161 30.118 27.9368 30.7117 27.9368C31.3054 27.9368 31.7848 28.4161 31.7848 29.0099Z" fill="#FFB300"/>
<path d="M27.5232 27.1121C27.5232 27.7037 27.0439 28.1852 26.4502 28.1852C25.8564 28.1852 25.3771 27.7059 25.3771 27.1121C25.3771 26.5184 25.8564 26.0391 26.4502 26.0391C27.0439 26.0391 27.5232 26.5184 27.5232 27.1121Z" fill="#FFB300"/>
<path d="M22.2897 26.039C22.2897 26.6306 21.8104 27.1121 21.2166 27.1121C20.6229 27.1121 20.1436 26.6327 20.1436 26.039C20.1436 25.4453 20.6229 24.9659 21.2166 24.9659C21.8104 24.9659 22.2897 25.4453 22.2897 26.039Z" fill="#FFB300"/>
<path d="M25.6563 23.5256C25.6563 24.1171 25.177 24.5987 24.5832 24.5987C23.9895 24.5987 23.5101 24.1193 23.5101 23.5256C23.5101 22.9319 23.9895 22.4525 24.5832 22.4525C25.177 22.4525 25.6563 22.9319 25.6563 23.5256Z" fill="#FFB300"/>
<path d="M17.5664 28.1853C17.5664 28.7768 17.087 29.2584 16.4933 29.2584C15.8996 29.2584 15.4202 28.779 15.4202 28.1853C15.4202 27.5916 15.8996 27.1122 16.4933 27.1122C17.087 27.1122 17.5664 27.5916 17.5664 28.1853Z" fill="#FFB300"/>
<path d="M29.7288 20.0227C29.7288 20.6142 29.2494 21.0958 28.6557 21.0958C28.062 21.0958 27.5826 20.6164 27.5826 20.0227C27.5826 19.429 28.062 18.9496 28.6557 18.9496C29.2494 18.9496 29.7288 19.429 29.7288 20.0227Z" fill="#FFB300"/>
<path d="M36.6973 16.4341C36.6973 17.0256 36.2179 17.5071 35.6242 17.5071C35.0305 17.5071 34.5511 17.0278 34.5511 16.4341C34.5511 15.8403 35.0305 15.361 35.6242 15.361C36.2179 15.361 36.6973 15.8403 36.6973 16.4341Z" fill="#FFB300"/>
<path d="M25.4628 9.15988C25.4628 9.7514 24.9834 10.233 24.3897 10.233C23.796 10.233 23.3166 9.7536 23.3166 9.15988C23.3166 8.56616 23.796 8.08679 24.3897 8.08679C24.9834 8.08679 25.4628 8.56616 25.4628 9.15988Z" fill="#FFB300"/>
<path d="M32.2598 15.9239C32.2598 16.5154 31.7804 16.997 31.1867 16.997C30.593 16.997 30.1136 16.5176 30.1136 15.9239C30.1136 15.3302 30.593 14.8508 31.1867 14.8508C31.7804 14.8508 32.2598 15.3302 32.2598 15.9239Z" fill="#FFB300"/>
<path d="M29.7288 12.08C29.7288 12.6716 29.2494 13.1531 28.6557 13.1531C28.062 13.1531 27.5826 12.6738 27.5826 12.08C27.5826 11.4863 28.062 11.007 28.6557 11.007C29.2494 11.007 29.7288 11.4863 29.7288 12.08Z" fill="#FFB300"/>
</g>
<path d="M16.2712 27.6751C17.6279 27.3122 18.8835 26.58 19.8665 25.5773" stroke="black" stroke-width="0.439791" stroke-linecap="round" stroke-linejoin="round"/>
<path d="M26.6459 13.019C27.4309 16.4516 26.7404 20.1964 24.7855 23.1254C22.8307 26.0544 18.9341 28.2358 15.462 28.8251C19.3827 29.1484 22.4635 27.7124 24.9703 25.8829C27.3693 24.1326 29.1527 21.5752 30.0718 18.7517" stroke="black" stroke-width="0.439791" stroke-linecap="round" stroke-linejoin="round"/>
<path d="M15.5697 30.239C20.8846 30.7755 27.5298 28.2314 31.1867 24.8428" stroke="black" stroke-width="0.439791" stroke-linecap="round" stroke-linejoin="round"/>
<path d="M19.4729 31.0328C18.3426 31.2022 17.1442 31.2945 15.8072 31.2" stroke="black" stroke-width="0.439791" stroke-linecap="round" stroke-linejoin="round"/>
<path d="M15.495 31.9652C15.5147 31.6441 15.5147 31.3231 15.495 31.002C15.1541 30.8283 14.9826 30.5073 14.8946 30.1532C14.7979 29.7618 14.8902 29.3286 15.1387 29.0098" stroke="black" stroke-width="0.439791" stroke-linecap="round" stroke-linejoin="round"/>
<mask id="mask5_341_929" style="mask-type:luminance" maskUnits="userSpaceOnUse" x="10" y="12" width="18" height="16">
<path d="M12.6451 12.0801C11.1696 14.9541 10.3934 18.1844 10.4 21.4168C10.4066 23.9302 11.5258 27.5145 14.5032 27.8048C17.5004 28.0951 21.4541 24.7636 23.2485 22.6988C25.6431 19.9413 27.0614 16.3504 27.2 12.7002" fill="white"/>
</mask>
<g mask="url(#mask5_341_929)">
<path d="M10.4858 19.8973C10.2571 19.8335 9.96679 19.7786 9.79087 19.8929C9.50281 20.0798 9.58857 20.5504 9.7535 20.7901C10.0372 21.2079 10.4682 21.353 10.9365 21.4344C11.317 21.5003 12.1086 21.5971 11.992 20.9616C11.8931 20.4185 11.1212 20.0974 10.6617 19.9479C10.6111 19.9325 10.5517 19.9127 10.4879 19.8951L10.4858 19.8973Z" fill="#ED7153"/>
<path d="M18.3624 20.7285C18.1403 20.8055 17.872 20.922 17.7973 21.1023C17.6741 21.3992 18.0194 21.7048 18.2942 21.7972C18.7692 21.9577 19.2046 21.8302 19.6312 21.6367C19.9786 21.4783 20.6757 21.1221 20.2073 20.7087C19.8071 20.3569 18.9957 20.5328 18.5361 20.6735C18.4855 20.6889 18.4262 20.7065 18.3624 20.7285Z" fill="#ED7153"/>
</g>
</g>
</svg>
