<svg width="46" height="46" viewBox="0 0 46 46" fill="none" xmlns="http://www.w3.org/2000/svg">
<rect x="1" y="1" width="44" height="44" rx="22" stroke="black" stroke-width="2"/>
<path d="M37.8716 37.8066C46.0674 29.6107 46.0674 16.3226 37.8716 8.12676C29.6757 -0.0690962 16.3876 -0.0690955 8.19173 8.12676C-0.00413034 16.3226 -0.00413034 29.6107 8.19173 37.8066C16.3876 46.0024 29.6757 46.0024 37.8716 37.8066Z" fill="#ACE2DF"/>
<mask id="mask0_341_932" style="mask-type:luminance" maskUnits="userSpaceOnUse" x="2" y="1" width="43" height="43">
<path d="M37.8716 37.8066C46.0674 29.6107 46.0674 16.3226 37.8716 8.12676C29.6757 -0.0690962 16.3876 -0.0690955 8.19173 8.12676C-0.00413034 16.3226 -0.00413034 29.6107 8.19173 37.8066C16.3876 46.0024 29.6757 46.0024 37.8716 37.8066Z" fill="white"/>
</mask>
<g mask="url(#mask0_341_932)">
<path d="M12.522 16.522C12.1152 17.3334 11.8029 18.1866 11.605 19.0793C11.2906 20.5065 11.0883 22.0127 10.2703 23.2244C9.57319 24.2557 8.45172 25.0319 8.0823 26.2215C7.84261 26.9934 7.96136 27.8356 7.75905 28.6184C7.46879 29.7487 6.56062 30.6041 6.01528 31.6376C5.30722 32.9855 5.96691 33.6496 6.31434 34.8678C6.63099 35.9849 5.5623 36.8469 6.10984 38.0057C6.68377 39.2174 8.32858 39.3405 9.66774 39.2899C11.3411 39.2262 13.0167 39.1646 14.6902 39.1008C15.9414 39.0546 17.3333 38.9447 18.1799 38.0233C18.9363 37.2009 19.0199 35.9849 19.0639 34.87C19.3563 27.5585 19.6488 20.2448 19.9413 12.9333C19.9654 12.3088 20.2007 10.3517 19.5059 9.98668C18.9385 9.68762 17.2123 11.1367 16.7923 11.4644C15.0618 12.8167 13.5159 14.5363 12.5198 16.522H12.522Z" fill="black"/>
<mask id="mask1_341_932" style="mask-type:luminance" maskUnits="userSpaceOnUse" x="-2" y="26" width="53" height="19">
<path d="M-1.41278 44.939C-1.39299 41.0358 -1.5733 34.417 3.75476 30.483C6.80691 28.2313 10.6639 27.3341 14.4461 27.0593C18.2283 26.7822 22.0303 27.0725 25.8213 26.9207C29.9289 26.7558 34.1509 26.0895 38.0804 27.299C42.0275 28.515 45.238 31.5539 47.3248 35.1184C49.4116 38.6829 49.3808 40.8687 50.0801 44.9412H-1.41278V44.939Z" fill="white"/>
</mask>
<g mask="url(#mask1_341_932)">
<path d="M50.8673 44.9389C50.355 41.5613 49.0224 38.0166 47.3248 35.1162C45.238 31.5517 42.0275 28.5127 38.0804 27.2967C34.1509 26.0851 29.9289 26.7535 25.8213 26.9185C22.0325 27.0702 18.2305 26.7799 14.4461 27.057C10.6639 27.3341 6.8069 28.229 3.75476 30.4808C0.39036 32.9634 -1.01037 37.0117 -1.39519 41.0335C-1.52053 42.3485 -1.47215 43.6503 -1.41498 44.9367H50.8673V44.9389Z" fill="#3B8A6E"/>
<path d="M3.90209 36.75C3.4667 36.3498 2.92795 36.4004 2.49036 36.75C1.989 37.148 1.48984 37.5482 0.988478 37.9462C0.577274 38.2739 0.621253 39.0215 0.988478 39.358C1.42387 39.7582 1.96261 39.7076 2.40021 39.358C2.90157 38.96 3.40073 38.5598 3.90209 38.1617C4.3133 37.8341 4.26932 37.0865 3.90209 36.75Z" fill="#B3E6D1"/>
<path d="M8.7002 35.5362L6.89047 33.8232C6.49905 33.4516 5.86795 33.434 5.47874 33.8232C5.10492 34.197 5.08513 34.8633 5.47874 35.2349C6.08125 35.8066 6.68377 36.3784 7.28848 36.9479C7.67989 37.3195 8.31099 37.3371 8.7002 36.9479C9.08942 36.5587 9.09382 35.9078 8.7002 35.5362Z" fill="#B3E6D1"/>
<path d="M7.06419 41.757C6.90806 41.0731 6.8267 40.3958 6.81351 39.6965C6.78712 38.4146 4.79047 38.4102 4.81686 39.6965C4.83445 40.5695 4.9444 41.4381 5.1401 42.2891C5.42597 43.5403 7.35225 43.0104 7.06639 41.7592L7.06419 41.757Z" fill="#B3E6D1"/>
<path d="M12.3329 38.309C11.2554 38.4102 10.2263 38.6323 9.22356 39.0413C8.72439 39.2436 8.37256 39.7054 8.52649 40.2683C8.65623 40.7411 9.25214 41.1699 9.7535 40.9654C10.5803 40.6289 11.4401 40.3893 12.3329 40.3057C12.8694 40.2551 13.3312 39.8835 13.3312 39.3074C13.3312 38.806 12.8738 38.2585 12.3329 38.309Z" fill="#B3E6D1"/>
<path d="M15.2157 33.8628C14.7803 33.4626 14.2416 33.5132 13.804 33.8628C13.3026 34.2608 12.8035 34.661 12.3021 35.059C11.8909 35.3867 11.9349 36.1343 12.3021 36.4708C12.7375 36.871 13.2762 36.8204 13.7138 36.4708C14.2152 36.0728 14.7143 35.6726 15.2157 35.2745C15.6269 34.9469 15.5829 34.1992 15.2157 33.8628Z" fill="#B3E6D1"/>
<path d="M20.0138 32.649C19.4113 32.0772 18.8088 31.5077 18.2041 30.936C17.8127 30.5644 17.1816 30.5468 16.7924 30.936C16.4031 31.3252 16.3987 31.9761 16.7924 32.3477C17.3949 32.9194 17.9974 33.4912 18.6021 34.0607C18.9935 34.4323 19.6246 34.4499 20.0138 34.0607C20.3876 33.6869 20.4074 33.0206 20.0138 32.649Z" fill="#B3E6D1"/>
<path d="M18.3756 38.8721C18.2195 38.1882 18.1381 37.5109 18.1249 36.8117C18.0985 35.5297 16.1019 35.5253 16.1283 36.8117C16.1459 37.6846 16.2558 38.5532 16.4515 39.4042C16.7374 40.6554 18.6637 40.1255 18.3778 38.8743L18.3756 38.8721Z" fill="#B3E6D1"/>
<path d="M23.6465 35.424C22.569 35.5252 21.5399 35.7473 20.5372 36.1563C20.038 36.3586 19.6862 36.8204 19.8401 37.3833C19.9698 37.8561 20.5658 38.2849 21.0671 38.0804C21.8939 37.7439 22.7537 37.5042 23.6465 37.4207C24.183 37.3701 24.6448 36.9985 24.6448 36.4224C24.6448 35.921 24.1874 35.3735 23.6465 35.424Z" fill="#B3E6D1"/>
<path d="M26.0258 29.8014C25.5904 29.4012 25.0516 29.4518 24.614 29.8014C24.1127 30.1994 23.6135 30.5996 23.1121 30.9976C22.7009 31.3253 22.7449 32.0729 23.1121 32.4094C23.5475 32.8096 24.0863 32.759 24.5239 32.4094C25.0252 32.0114 25.5244 31.6111 26.0258 31.2131C26.437 30.8855 26.393 30.1378 26.0258 29.8014Z" fill="#B3E6D1"/>
<path d="M26.415 40.0859C26.9999 39.9979 27.2989 39.5493 27.3033 38.9886C27.3077 38.3487 27.3121 37.7088 27.3187 37.0689C27.3231 36.5434 26.714 36.108 26.2215 36.1805C25.6365 36.2685 25.3375 36.7193 25.3331 37.2778C25.3287 37.9177 25.3243 38.5576 25.3177 39.1975C25.3133 39.7231 25.9224 40.1584 26.415 40.0859Z" fill="#B3E6D1"/>
<path d="M30.8261 28.5876C30.2236 28.0158 29.621 27.4463 29.0163 26.8746C28.6249 26.503 27.9938 26.4854 27.6046 26.8746C27.2308 27.2484 27.211 27.9147 27.6046 28.2863C28.2071 28.858 28.8096 29.4298 29.4143 29.9993C29.8058 30.3709 30.4369 30.3885 30.8261 29.9993C31.2153 29.6101 31.2197 28.9592 30.8261 28.5876Z" fill="#B3E6D1"/>
<path d="M29.1879 34.8106C29.0317 34.1267 28.9504 33.4494 28.9372 32.7501C28.9108 31.4681 26.9141 31.4637 26.9405 32.7501C26.9581 33.6231 27.0681 34.4917 27.2638 35.3427C27.5496 36.5939 29.4759 36.064 29.19 34.8127L29.1879 34.8106Z" fill="#B3E6D1"/>
<path d="M34.4587 31.3626C33.3813 31.4638 32.3521 31.6859 31.3494 32.0949C30.8503 32.2972 30.4984 32.759 30.6524 33.3219C30.7821 33.7947 31.378 34.2235 31.8794 34.019C32.7062 33.6825 33.566 33.4428 34.4587 33.3593C34.9953 33.3087 35.4571 32.9371 35.4571 32.361C35.4571 31.8596 34.9997 31.3121 34.4587 31.3626Z" fill="#B3E6D1"/>
<path d="M15.2157 41.038C14.7803 40.6378 14.2416 40.6883 13.804 41.038C13.3026 41.436 12.8035 41.8362 12.3021 42.2342C11.8909 42.5619 11.9349 43.3095 12.3021 43.6459C12.7375 44.0461 13.2762 43.9956 13.7138 43.6459C14.2152 43.2479 14.7143 42.8477 15.2157 42.4497C15.6269 42.1221 15.5829 41.3744 15.2157 41.038Z" fill="#B3E6D1"/>
<path d="M10.1361 35.1778C10.721 35.0898 11.0201 34.6391 11.0245 34.0805C11.0289 33.4406 11.0333 32.8007 11.0399 32.1608C11.0443 31.6353 10.4352 31.1999 9.94262 31.2725C9.3577 31.3604 9.05864 31.8112 9.05424 32.3697C9.04984 33.0096 9.04545 33.6495 9.03885 34.2894C9.03445 34.815 9.64356 35.2504 10.1361 35.1778Z" fill="#B3E6D1"/>
<path d="M21.5575 30.3313C22.0149 29.6386 22.4745 28.9459 22.9318 28.2533C23.2287 27.8047 23.1363 27.178 22.6877 26.8635C22.2546 26.5601 21.5949 26.6568 21.298 27.1076C20.8406 27.8003 20.381 28.493 19.9237 29.1856C19.6268 29.6342 19.7192 30.2609 20.1677 30.5754C20.6009 30.8788 21.2606 30.7821 21.5575 30.3313Z" fill="#B3E6D1"/>
<path d="M14.4417 30.4104C14.2855 29.7265 14.2042 29.0492 14.191 28.35C14.1646 27.068 12.168 27.0636 12.1943 28.35C12.2119 29.223 12.3219 30.0916 12.5176 30.9425C12.8035 32.1938 14.7297 31.6638 14.4439 30.4126L14.4417 30.4104Z" fill="#B3E6D1"/>
<path d="M6.6156 29.753C5.53811 29.8542 4.509 30.0763 3.50628 30.4853C3.00712 30.6876 2.65528 31.1493 2.80921 31.7123C2.93895 32.1851 3.53487 32.6138 4.03623 32.4093C4.86303 32.0729 5.72282 31.8332 6.6156 31.7497C7.15214 31.6991 7.61392 31.3275 7.61392 30.7513C7.61392 30.25 7.15654 29.7024 6.6156 29.753Z" fill="#B3E6D1"/>
<path d="M19.607 41.7329C19.1716 41.3327 18.6329 41.3833 18.1953 41.7329C17.6939 42.1309 17.1948 42.5311 16.6934 42.9292C16.2822 43.2568 16.3262 44.0044 16.6934 44.3409C17.1288 44.7411 17.6675 44.6905 18.1051 44.3409C18.6065 43.9429 19.1057 43.5427 19.607 43.1447C20.0182 42.817 19.9742 42.0694 19.607 41.7329Z" fill="#B3E6D1"/>
<path d="M24.5085 42.1001C23.906 41.5284 23.3035 40.9567 22.6987 40.3872C22.3073 40.0155 21.6762 39.9979 21.287 40.3872C20.9132 40.761 20.8934 41.4273 21.287 41.7989C21.8895 42.3706 22.492 42.9423 23.0967 43.5119C23.4882 43.8835 24.1193 43.9011 24.5085 43.5119C24.8823 43.138 24.9021 42.4718 24.5085 42.1001Z" fill="#B3E6D1"/>
<path d="M1.80649 35.235C1.65036 34.5511 1.569 33.8738 1.55581 33.1746C1.52942 31.8926 -0.467229 31.8882 -0.440842 33.1746C-0.42325 34.0476 -0.313303 34.9161 -0.117596 35.7671C0.168268 37.0183 2.09455 36.4884 1.80869 35.2372L1.80649 35.235Z" fill="#B3E6D1"/>
<path d="M30.5952 39.059C30.1598 38.6588 29.621 38.7093 29.1834 39.059C28.6821 39.457 28.1829 39.8572 27.6816 40.2552C27.2704 40.5829 27.3143 41.3305 27.6816 41.6669C28.117 42.0671 28.6557 42.0166 29.0933 41.6669C29.5947 41.2689 30.0938 40.8687 30.5952 40.4707C31.0064 40.1431 30.9624 39.3954 30.5952 39.059Z" fill="#B3E6D1"/>
<path d="M35.3933 37.8451C34.7908 37.2734 34.1883 36.7017 33.5836 36.1322C33.1921 35.7605 32.561 35.7429 32.1718 36.1322C31.798 36.506 31.7782 37.1723 32.1718 37.5439C32.7743 38.1156 33.3769 38.6873 33.9816 39.2569C34.373 39.6285 35.0041 39.6461 35.3933 39.2569C35.7671 38.883 35.7869 38.2168 35.3933 37.8451Z" fill="#B3E6D1"/>
<path d="M31.9805 44.9389H33.544C33.7353 44.7234 33.8386 44.4265 33.7573 44.0659C33.6011 43.382 33.5198 42.7048 33.5066 42.0055C33.4802 40.7235 31.4836 40.7191 31.5099 42.0055C31.5275 42.8785 31.6375 43.7471 31.8332 44.5981C31.864 44.7344 31.9167 44.8444 31.9827 44.9389H31.9805Z" fill="#B3E6D1"/>
<path d="M39.0282 40.6202C37.9507 40.7214 36.9216 40.9434 35.9188 41.3525C35.4197 41.5548 35.0679 42.0165 35.2218 42.5795C35.3515 43.0522 35.9474 43.481 36.4488 43.2765C37.2756 42.9401 38.1354 42.7004 39.0282 42.6169C39.5647 42.5663 40.0265 42.1946 40.0265 41.6185C40.0265 41.1172 39.5691 40.5696 39.0282 40.6202Z" fill="#B3E6D1"/>
<path d="M43.0566 35.413C43.4195 34.9468 43.3227 34.4125 42.9401 34.0057C42.5003 33.5395 42.0627 33.0755 41.6229 32.6093C41.2623 32.2267 40.5213 32.3345 40.2156 32.7259C39.8528 33.1921 39.9495 33.7264 40.3321 34.1332C40.7719 34.5994 41.2095 35.0634 41.6493 35.5296C42.0099 35.9122 42.751 35.8044 43.0566 35.413Z" fill="#B3E6D1"/>
<path d="M42.7312 40.9127C43.3161 40.8247 43.6152 40.3761 43.6196 39.8154C43.624 39.1755 43.6284 38.5356 43.635 37.8957C43.6394 37.3702 43.0303 36.9348 42.5377 37.0073C41.9528 37.0953 41.6537 37.5461 41.6493 38.1046C41.6449 38.7445 41.6405 39.3844 41.6339 40.0243C41.6295 40.5498 42.2386 40.9852 42.7312 40.9127Z" fill="#B3E6D1"/>
<path d="M39.844 29.0493C40.308 28.361 40.7697 27.6706 41.2337 26.9823C41.535 26.5359 41.447 25.9092 41.0006 25.5903C40.5696 25.2825 39.9099 25.3749 39.6087 25.8234C39.1447 26.5117 38.6829 27.2022 38.219 27.8905C37.9177 28.3368 38.0057 28.9635 38.452 29.2824C38.883 29.5902 39.5427 29.4979 39.844 29.0493Z" fill="#B3E6D1"/>
<path d="M44.3914 31.1735C44.2353 30.4896 44.1539 29.8123 44.1407 29.113C44.1143 27.8311 42.1177 27.8267 42.1441 29.113C42.1617 29.986 42.2716 30.8546 42.4673 31.7056C42.7532 32.9568 44.6795 32.4269 44.3936 31.1757L44.3914 31.1735Z" fill="#B3E6D1"/>
<path d="M41.7527 44.939C41.8164 44.6047 41.7153 44.2221 41.4822 44.0088C41.0468 43.6086 40.5081 43.6592 40.0705 44.0088C39.6813 44.3189 39.292 44.6289 38.9028 44.939H41.7549H41.7527Z" fill="#B3E6D1"/>
<path d="M45.2732 44.9389C45.1896 44.7806 45.1149 44.6157 45.0511 44.4441C44.8576 43.934 44.3694 43.5844 43.8087 43.7383C43.3337 43.868 42.9357 44.4354 43.0918 44.9389H45.2754H45.2732Z" fill="#B3E6D1"/>
<path d="M39.8836 38.1816C39.5361 37.5131 39.1909 36.8446 38.8435 36.1762C38.5928 35.6924 37.9155 35.5473 37.4603 35.8133C36.9677 36.1014 36.8446 36.7105 37.0975 37.1965C37.4449 37.865 37.7902 38.5334 38.1376 39.2019C38.3883 39.6857 39.0655 39.8308 39.5207 39.5647C40.0133 39.2767 40.1364 38.6676 39.8836 38.1816Z" fill="#B3E6D1"/>
<path d="M28.9877 44.9389C29.4737 43.8284 27.8069 42.8829 27.2066 44.0043L26.7052 44.9389H28.9877Z" fill="#B3E6D1"/>
<path d="M1.02366 41.834C0.0737139 41.5525 -0.876234 41.271 -1.82618 40.9918C-3.07519 40.6223 -3.60953 42.5728 -2.36273 42.94C-1.41278 43.2215 -0.462831 43.503 0.487117 43.7822C1.73612 44.1516 2.27047 42.2012 1.02366 41.834Z" fill="#B3E6D1"/>
<path d="M11.0553 44.9389C10.2856 44.409 9.46983 43.9824 8.57926 43.6416C8.0691 43.4481 7.47099 43.8571 7.33685 44.3474C7.27748 44.5607 7.29067 44.7608 7.35664 44.9389H11.0553Z" fill="#B3E6D1"/>
</g>
<path d="M11.0047 23.0264C10.1229 24.6668 10.5561 26.9757 12.1196 27.9916C13.2916 28.7525 14.9056 28.6931 16.0931 27.9543C17.2805 27.2154 18.0326 25.874 18.1843 24.4843C18.6857 19.8841 12.8408 19.6092 11.0047 23.0264Z" stroke="#F55540" stroke-width="0.439791" stroke-linecap="round" stroke-linejoin="round"/>
<path d="M13.9513 22.6724C13.8677 23.9654 13.8677 25.3661 14.6088 26.4216C15.5631 27.7805 17.3861 28.0994 19.0199 28.2775C21.6344 28.5634 24.4601 28.7327 26.703 27.3407C28.2665 26.371 29.3462 24.735 30.0015 22.9956C30.7447 21.021 31.3912 19.0485 30.6611 17.0233C29.9355 15.009 28.5502 13.2257 26.7492 12.0624C23.8928 10.2197 18.833 9.55121 16.2976 12.3175C14.147 14.666 14.1448 19.6708 13.9513 22.6724Z" fill="#F4947D"/>
<path d="M24.1566 23.2486C23.2749 24.889 23.7081 27.1979 25.2715 28.2138C26.4436 28.9746 28.0576 28.9153 29.245 28.1764C30.4325 27.4376 31.1845 26.0962 31.3362 24.7065C31.8376 20.1063 25.9928 19.8314 24.1566 23.2486Z" stroke="#F55540" stroke-width="0.439791" stroke-linecap="round" stroke-linejoin="round"/>
<path d="M38.2717 30.4897C38.3157 30.604 38.3641 30.714 38.4169 30.8239C39.0919 32.2093 40.7302 33.0339 41.6449 34.2587C43.3579 36.5522 42.9885 40.0815 40.9698 42.1112C38.9512 44.1408 35.578 44.5696 33.0184 43.2876C28.2885 40.9149 29.3418 36.207 28.2489 31.9674C27.7058 29.8608 26.4436 28.0115 25.7311 25.9554C24.9065 23.5696 25.6563 22.0941 26.2149 19.849C26.7294 17.7753 25.4122 16.821 23.5387 16.0799C22.9472 15.8469 22.3623 15.495 21.9357 15.0179C21.7356 14.7936 21.5553 14.5363 21.4739 14.2438C21.3992 13.9777 21.5047 13.6281 21.2518 13.4522C19.6994 14.7342 17.8171 15.484 15.7786 15.3455C15.2993 15.3125 14.0349 15.097 14.0547 14.4263C14.0635 14.0855 14.6044 13.5819 14.8023 13.3401C15.418 12.588 16.0843 11.6974 16.8583 11.0993C18.1359 10.1098 19.5674 9.4611 21.1661 9.34235C23.4486 9.17304 26.0126 8.88937 28.1587 9.8877C30.5116 10.985 30.3863 13.8128 32.0553 15.7347C33.0998 16.9397 34.3092 18.0084 35.2284 19.3102C37.7176 22.8263 36.827 26.7757 38.2739 30.4941L38.2717 30.4897Z" fill="black"/>
<path d="M19.7741 19.5851C19.1364 19.9105 18.4987 20.236 17.8588 20.5636C17.4872 20.7549 17.0672 21.0078 17.0166 21.4212C16.9661 21.8324 17.3399 22.1996 17.7423 22.2964C18.1469 22.3931 18.5669 22.2898 18.9693 22.1864" stroke="black" stroke-width="0.439791" stroke-linecap="round" stroke-linejoin="round"/>
<path d="M22.7295 19.75C22.7295 20.0974 22.4986 20.3789 22.215 20.3789C21.9313 20.3789 21.7004 20.0974 21.7004 19.75C21.7004 19.4026 21.9313 19.1211 22.215 19.1211C22.4986 19.1211 22.7295 19.4026 22.7295 19.75Z" fill="black"/>
<path d="M16.2976 19.1189C16.2976 19.4663 16.0667 19.7478 15.783 19.7478C15.4994 19.7478 15.2685 19.4663 15.2685 19.1189C15.2685 18.7715 15.4994 18.49 15.783 18.49C16.0667 18.49 16.2976 18.7715 16.2976 19.1189Z" fill="black"/>
<path d="M17.8456 24.636C18.3382 25.0318 19.0353 25.1572 19.6356 24.9571C20.2359 24.757 20.7175 24.238 20.8736 23.6267" stroke="black" stroke-width="0.439791" stroke-linecap="round" stroke-linejoin="round"/>
<path d="M21.7004 19.8423C21.8425 19.8423 21.9577 19.7271 21.9577 19.585C21.9577 19.4429 21.8425 19.3278 21.7004 19.3278C21.5583 19.3278 21.4431 19.4429 21.4431 19.585C21.4431 19.7271 21.5583 19.8423 21.7004 19.8423Z" fill="white"/>
<path d="M15.5258 19.1189C15.6678 19.1189 15.783 19.0037 15.783 18.8616C15.783 18.7196 15.6678 18.6044 15.5258 18.6044C15.3837 18.6044 15.2685 18.7196 15.2685 18.8616C15.2685 19.0037 15.3837 19.1189 15.5258 19.1189Z" fill="white"/>
<path d="M26.9405 18.2262C26.3732 17.4653 25.3903 17.1663 24.4733 16.9288C23.5563 16.6913 22.5712 16.4362 21.9467 15.7238C21.2826 14.9629 21.1881 13.8393 21.4211 12.8563" stroke="black" stroke-width="0.439791" stroke-linecap="round" stroke-linejoin="round"/>
<path d="M23.4464 21.2827C23.2749 21.1112 23.0374 21.0584 22.8043 21.1134C22.3205 21.2277 21.8873 21.474 21.5245 21.8105C21.2716 22.0457 21.2672 22.5075 21.5245 22.7428C21.6432 22.8528 21.7862 22.9121 21.9335 22.9253C21.9885 22.9429 22.0478 22.9539 22.1094 22.9583C22.8065 22.9979 23.365 22.5405 23.6157 21.9248C23.7015 21.7137 23.5981 21.4344 23.4464 21.2827Z" fill="#ED7153"/>
<path d="M16.0711 21.3619C15.9699 21.1684 15.8094 21.0101 15.6291 20.8913C15.4356 20.7638 15.2289 20.7198 15.0024 20.6978C14.8001 20.678 14.6 20.8078 14.4835 20.9573C14.3581 21.1178 14.3031 21.3311 14.3647 21.5334C14.4197 21.7093 14.5032 21.8611 14.6286 21.9974C14.7583 22.1337 14.9122 22.2063 15.0816 22.2767C15.1277 22.2964 15.1849 22.3008 15.2421 22.3008C15.4334 22.3778 15.6599 22.3756 15.8292 22.2657C16.1415 22.0634 16.236 21.6917 16.0667 21.3641L16.0711 21.3619Z" fill="#ED7153"/>
</g>
</svg>
