<svg width="94" height="115" viewBox="0 0 94 115" fill="none" xmlns="http://www.w3.org/2000/svg">
<path d="M55.3698 25.8315C56.3317 25.7151 57.2065 26.4052 57.3236 27.3728L58.384 36.1332L63.6093 35.5008C64.5712 35.3843 65.4461 36.0744 65.5632 37.042L71.0769 82.5964C71.1941 83.564 70.5091 84.4429 69.5472 84.5593L64.3219 85.1918L65.1701 92.2001C65.2873 93.1677 64.6023 94.0466 63.6404 94.1631C62.6785 94.2795 61.8037 93.5894 61.6866 92.6218L60.8383 85.6134L55.6129 86.2459C54.6511 86.3623 53.7762 85.6722 53.6591 84.7046L48.1453 39.1502C48.0282 38.1826 48.7131 37.3037 49.675 37.1873L54.9004 36.5549L53.8401 27.7944C53.7229 26.8268 54.4079 25.9479 55.3698 25.8315ZM51.841 40.4807L56.9306 82.5309L67.3813 81.2659L62.2917 39.2158L51.841 40.4807Z" fill="black"/>
<path d="M29.772 22.1324C30.7339 22.016 31.6087 22.7061 31.7258 23.6737L32.7862 32.4342L38.0115 31.8017C38.9734 31.6853 39.8483 32.3754 39.9654 33.343L45.4792 78.8974C45.5963 79.865 44.9113 80.7439 43.9494 80.8603L38.7241 81.4927L39.5724 88.5011C39.6895 89.4687 39.0045 90.3476 38.0426 90.464C37.0807 90.5804 36.2059 89.8903 36.0888 88.9227L35.2405 81.9144L30.0152 82.5468C29.0533 82.6633 28.1784 81.9732 28.0613 81.0056L22.5475 35.4512C22.4304 34.4836 23.1154 33.6047 24.0773 33.4883L29.3026 32.8558L28.2423 24.0954C28.1252 23.1278 28.8101 22.2489 29.772 22.1324ZM26.2432 36.7816L31.3328 78.8318L41.7835 77.5669L36.6939 35.5167L26.2432 36.7816Z" fill="black"/>
<path d="M8.16859 45.8189C9.13048 45.7025 10.0053 46.3926 10.1224 47.3602L11.1828 56.1207L16.4081 55.4882C17.37 55.3718 18.2449 56.0619 18.362 57.0295L23.8758 102.584C23.9929 103.551 23.3079 104.43 22.346 104.547L17.1207 105.179L17.969 112.188C18.0861 113.155 17.4011 114.034 16.4392 114.151C15.4773 114.267 14.6025 113.577 14.4854 112.609L13.6371 105.601L8.41176 106.233C7.44987 106.35 6.57502 105.66 6.45791 104.692L0.94414 59.1377C0.827027 58.1701 1.51196 57.2912 2.47386 57.1748L7.69921 56.5423L6.63887 47.7819C6.52176 46.8143 7.2067 45.9354 8.16859 45.8189ZM4.63978 60.4681L9.72941 102.518L20.1801 101.253L15.0905 59.2032L4.63978 60.4681Z" fill="black"/>
<path d="M77.3998 0.0541564C78.3617 -0.0622688 79.2366 0.627842 79.3537 1.59543L80.414 10.3559L85.6394 9.72342C86.6013 9.607 87.4761 10.2971 87.5932 11.2647L93.107 56.8191C93.2241 57.7867 92.5392 58.6656 91.5773 58.782L86.3519 59.4144L87.2002 66.4228C87.3173 67.3904 86.6324 68.2693 85.6705 68.3857C84.7086 68.5021 83.8337 67.812 83.7166 66.8445L82.8684 59.8361L77.643 60.4685C76.6811 60.585 75.8063 59.8949 75.6891 58.9273L70.1754 13.3729C70.0583 12.4053 70.7432 11.5264 71.7051 11.41L76.9305 10.7775L75.8701 2.01707C75.753 1.04948 76.4379 0.170582 77.3998 0.0541564ZM73.871 14.7034L78.9607 56.7535L89.4114 55.4886L84.3217 13.4384L73.871 14.7034Z" fill="black"/>
<path d="M73.8564 14.7185L84.3368 13.4499L89.4321 55.5467L78.9517 56.8153L73.8564 14.7185Z" fill="#ACE2DF"/>
<path d="M26.2587 36.7827L36.7392 35.5142L41.8344 77.611L31.354 78.8795L26.2587 36.7827Z" fill="#ACE2DF"/>
</svg>
