<svg width="90" height="72" viewBox="0 0 90 72" fill="none" xmlns="http://www.w3.org/2000/svg">
<path d="M4.49709 27.4574C0.236983 21.9728 -1.02848 17.3553 0.837745 14.1046L2.98823 10.3538C4.24013 8.17011 5.49255 5.9853 6.74726 3.80032C8.74487 0.316805 14.0684 -0.822675 21.7364 0.592543C28.9881 1.9308 37.6449 5.3785 46.1121 10.3005C50.1682 12.6591 53.95 15.2169 57.3525 17.9032L55.8336 19.8534C52.522 17.2388 48.8369 14.7469 44.8811 12.4464C36.6517 7.66278 28.2743 4.31846 21.2925 3.03003C14.821 1.83558 10.2962 2.56828 8.87855 5.04017C6.16517 9.77418 14.9057 21.793 32.2426 32.1398L30.9873 34.2716C22.791 29.3799 15.767 23.6554 11.2087 18.1525C8.62141 15.029 6.96566 12.1179 6.28458 9.56263C5.89658 10.2393 5.50787 10.9163 5.12022 11.5928L2.96921 15.3443C1.90594 17.1966 2.59019 20.16 4.83508 23.6724L6.69689 20.4216L8.82924 21.6595L6.40576 25.8911C6.41597 25.9044 6.42584 25.9175 6.43623 25.9308C8.09973 28.0724 10.2053 30.2868 12.6552 32.4906L14.7641 28.8091L16.8963 30.0472L14.5531 34.1375C17.1828 36.3422 20.1359 38.5149 23.3164 40.5707L21.9865 42.656C14.6253 37.898 8.41429 32.5003 4.49709 27.4574ZM23.5557 9.33353C28.8089 10.908 35.3154 13.8753 41.8764 17.6885C44.6051 19.2764 47.2173 20.9363 49.6406 22.6218L51.0395 20.5828C48.5623 18.8597 45.8939 17.1641 43.1076 15.5427C36.3843 11.635 29.69 8.58628 24.258 6.95828C18.1418 5.12511 14.3994 5.31343 13.1351 7.51738C11.8699 9.71974 13.5792 13.0759 18.2153 17.4925C22.3324 21.4148 28.3023 25.7281 35.0278 29.6395C35.4644 29.8921 35.9058 30.1446 36.3422 30.3923L37.5503 28.2332C37.1198 27.989 36.6843 27.7399 36.2563 27.4923C29.6948 23.6762 23.8883 19.4855 19.9068 15.6925C15.4977 11.4921 14.9429 9.31987 15.2661 8.7574C15.5894 8.1944 17.7378 7.5899 23.5557 9.33353ZM84.4465 45.297C79.6693 50.9531 72.376 56.7784 63.9104 61.6995C55.4405 66.6216 46.7822 70.0691 39.5303 71.4074C37.3819 71.8039 35.4167 72 33.6579 72C29.1389 72 25.9783 70.7071 24.5401 68.1989C23.1618 65.7923 21.7813 63.3862 20.4017 60.9818L18.6308 57.8948C16.6326 54.4102 18.3136 49.198 23.3643 43.2181C28.142 37.5615 35.437 31.736 43.9052 26.815C52.3707 21.8941 61.0284 18.4471 68.2834 17.109C75.9529 15.695 81.2768 16.8332 83.2751 20.3152L89.1801 30.6253C91.1777 34.1065 89.4969 39.3173 84.4465 45.297ZM20.7624 56.6558C22.1799 59.1274 26.705 59.8599 33.1771 58.6658C40.1592 57.3774 48.5382 54.033 56.7704 49.2492C64.9994 44.4657 72.0648 38.8324 76.6648 33.3869C80.9281 28.3401 82.5606 24.0278 81.144 21.5557L81.1432 21.5543C79.7261 19.0849 75.2003 18.3531 68.7269 19.5468C61.7419 20.8351 53.3637 24.1785 45.1358 28.9615C36.9053 33.7446 29.8394 39.3778 25.2395 44.8239C20.9764 49.8706 19.3446 54.1832 20.7624 56.6558ZM87.0481 31.8641L83.7366 26.0821C83.0307 28.7233 81.2835 31.744 78.5397 34.9922C73.7618 40.6481 66.4677 46.4736 58.001 51.3952C49.5312 56.3173 40.8729 59.7649 33.6209 61.1031C31.4726 61.4996 29.5074 61.6956 27.7486 61.6957C26.0976 61.6957 24.6291 61.5225 23.3585 61.1811C24.4633 63.107 25.5687 65.0333 26.6723 66.9603C27.7484 68.8367 30.6182 69.7095 34.7702 69.4985L32.9057 66.2414L35.0384 65.0041L37.4599 69.2345C37.9876 69.1602 38.5294 69.0726 39.0866 68.9697C41.3489 68.5521 43.7587 67.9177 46.262 67.0894L44.1472 63.4032L46.2787 62.1637L48.628 66.259C51.2449 65.289 53.9428 64.1222 56.6664 62.7802L54.5005 58.9979L56.6331 57.7602L58.8667 61.6611C60.1374 60.9942 61.4103 60.291 62.6798 59.5533C63.9475 58.8163 65.1873 58.0592 66.395 57.2857L64.1575 53.3851L66.2889 52.1458L68.4579 55.9269C70.9733 54.2239 73.3253 52.4552 75.4677 50.6588L73.121 46.5621L75.2532 45.324L77.3651 49.0109C79.3296 47.2417 81.0808 45.457 82.5715 43.6919C82.9382 43.2576 83.2841 42.8294 83.6115 42.4068L81.1882 38.1798L83.3201 36.941L85.1842 40.1924C87.4408 36.6773 88.1244 33.7396 87.0481 31.8641ZM25.0186 54.1776C23.7562 51.9743 25.4662 48.6179 30.1007 44.2014C34.2196 40.2761 40.189 35.9633 46.9096 32.0574C53.6328 28.1497 60.3271 25.1011 65.7592 23.4729C71.8755 21.6398 75.6178 21.8281 76.8823 24.0328C78.1471 26.2374 76.4376 29.5947 71.8018 34.0111C67.6847 37.9333 61.7146 42.2455 54.9914 46.1531C48.2682 50.0608 41.5739 53.1096 36.1418 54.7376C33.367 55.5692 31.0809 55.9848 29.2928 55.9848C27.1397 55.9847 25.7094 55.3821 25.0186 54.1776ZM27.1505 52.9388C27.4731 53.5014 29.6215 54.1059 35.4394 52.3623C40.6925 50.7878 47.1991 47.8205 53.7607 44.0068C60.3222 40.1933 66.1283 36.004 70.1098 32.2111C74.5193 28.0103 75.0735 25.8354 74.7505 25.2722C74.4273 24.7091 72.279 24.1047 66.4612 25.8482C61.2081 27.4226 54.7013 30.39 48.14 34.2037C41.5814 38.0158 35.7758 42.2054 31.7926 46.0014C27.3838 50.2029 26.8281 52.3765 27.1505 52.9388ZM9.5119 43.4344H7.05055V46.5748H3.93138V49.0529H7.05055V52.1933H9.5119V49.0529H12.6311V46.5748H9.5119V43.4344ZM62.0144 14.7447H64.4757V11.6043H67.59V9.12624H64.4759V5.98584H62.0146V9.12624H58.8954V11.6043H62.0146L62.0144 14.7447Z" fill="black"/>
<path d="M74.9167 25.306C76.4801 28.0158 67.0559 36.381 53.8672 43.9904C40.6785 51.5997 28.7195 55.5716 27.1561 52.8619C25.5927 50.1522 35.0169 41.7869 48.2056 34.1776C61.3943 26.5682 73.3533 22.5963 74.9167 25.306Z" fill="#E7DB4C"/>
<path d="M48.8369 21.6531V21.6812L48.811 21.6644L48.8369 21.6531Z" fill="#E7DB4C"/>
<path d="M42.2125 17.6676C44.5413 18.9871 46.754 20.3309 48.811 21.6644C44.4122 23.5818 40.419 25.6835 37.0753 27.7768C36.9262 27.6931 36.777 27.6089 36.6276 27.5243C23.38 20.018 13.8909 11.7265 15.4331 9.00465C16.9753 6.2828 28.9649 10.1613 42.2125 17.6676Z" fill="#E7DB4C"/>
<path d="M37.0762 27.7773L37.0753 27.7768L37.0744 27.7773H37.0762Z" fill="#E7DB4C"/>
</svg>
