<svg width="25" height="25" viewBox="0 0 25 25" fill="none" xmlns="http://www.w3.org/2000/svg">
<mask id="mask0_140_345" style="mask-type:alpha" maskUnits="userSpaceOnUse" x="0" y="0" width="25" height="25">
<rect x="0.280518" y="0.280396" width="24" height="24" fill="#D9D9D9"/>
</mask>
<g mask="url(#mask0_140_345)">
<path d="M9.28052 18.2804C8.73052 18.2804 8.25968 18.0846 7.86802 17.6929C7.47635 17.3012 7.28052 16.8304 7.28052 16.2804V4.2804C7.28052 3.7304 7.47635 3.25956 7.86802 2.8679C8.25968 2.47623 8.73052 2.2804 9.28052 2.2804H18.2805C18.8305 2.2804 19.3014 2.47623 19.693 2.8679C20.0847 3.25956 20.2805 3.7304 20.2805 4.2804V16.2804C20.2805 16.8304 20.0847 17.3012 19.693 17.6929C19.3014 18.0846 18.8305 18.2804 18.2805 18.2804H9.28052ZM9.28052 16.2804H18.2805V4.2804H9.28052V16.2804ZM5.28052 22.2804C4.73052 22.2804 4.25968 22.0846 3.86802 21.6929C3.47635 21.3012 3.28052 20.8304 3.28052 20.2804L3.28052 6.2804H5.28052V20.2804H16.2805V22.2804H5.28052Z" fill="black"/>
</g>
</svg>
