<svg width="1206" height="646" viewBox="0 0 1206 646" fill="none" xmlns="http://www.w3.org/2000/svg">
<g filter="url(#filter0_d_58_45)">
<path d="M6 7.99999C6 3.58171 9.58172 0 14 0H429.016C432.067 0 434.852 1.73535 436.197 4.47398L472.803 79.026C474.148 81.7647 476.933 83.5 479.984 83.5H1198C1202.42 83.5 1206 87.0817 1206 91.5V632C1206 636.418 1202.42 640 1198 640H14C9.58171 640 6 636.418 6 632V7.99999Z" fill="#F9F3FF"/>
<path d="M7.5 7.99999C7.5 4.41014 10.4101 1.5 14 1.5H429.016C431.495 1.5 433.758 2.90997 434.85 5.13511L471.457 79.6871C473.054 82.9393 476.361 85 479.984 85H1198C1201.59 85 1204.5 87.9101 1204.5 91.5V632C1204.5 635.59 1201.59 638.5 1198 638.5H14C10.4101 638.5 7.5 635.59 7.5 632V7.99999Z" stroke="black" stroke-width="3"/>
</g>
<defs>
<filter id="filter0_d_58_45" x="0" y="0" width="1206" height="646" filterUnits="userSpaceOnUse" color-interpolation-filters="sRGB">
<feFlood flood-opacity="0" result="BackgroundImageFix"/>
<feColorMatrix in="SourceAlpha" type="matrix" values="0 0 0 0 0 0 0 0 0 0 0 0 0 0 0 0 0 0 127 0" result="hardAlpha"/>
<feOffset dx="-6" dy="6"/>
<feComposite in2="hardAlpha" operator="out"/>
<feColorMatrix type="matrix" values="0 0 0 0 0 0 0 0 0 0 0 0 0 0 0 0 0 0 1 0"/>
<feBlend mode="normal" in2="BackgroundImageFix" result="effect1_dropShadow_58_45"/>
<feBlend mode="normal" in="SourceGraphic" in2="effect1_dropShadow_58_45" result="shape"/>
</filter>
</defs>
</svg>
