<svg width="1440" height="174" viewBox="0 0 1440 174" fill="none" xmlns="http://www.w3.org/2000/svg">
<path fill-rule="evenodd" clip-rule="evenodd" d="M1440 174V0.707655C1440 0.707655 1304.06 82.5704 1212 84.5321C1162.98 85.5768 1126.59 64.1493 1090.16 42.6981C1053.96 21.3798 1017.72 0.0379777 969 0.707655C917.649 1.41347 879.973 26.5267 842.405 51.5678C804.235 77.0104 766.176 102.379 714 101.995C661.832 101.613 624.103 76.8607 586.011 51.8705C549.879 28.1659 513.42 4.24696 464 0.707655C413.379 -2.91783 374.965 14.4186 336.393 31.8261C298.745 48.8168 260.946 65.8754 211.5 63.5761C127.102 59.6513 0 0.707655 0 0.707655V174H1440Z" fill="white"/>
</svg>
