<svg width="1070" height="103" viewBox="0 0 1070 103" fill="none" xmlns="http://www.w3.org/2000/svg">
<path fill-rule="evenodd" clip-rule="evenodd" d="M94.4486 102.03H60.5236V36.875H0.638611V5.01499H154.629V36.875H94.4486V102.03ZM368.669 102.03C371.16 94.3912 372.405 86.1444 372.405 77.29C372.405 56.2467 365.719 38.94 352.345 25.37C339.169 11.8 322.255 5.01499 301.605 5.01499H225.495V102.03H259.42V35.4H299.54C310.75 35.4 319.994 39.4317 327.27 47.495C334.744 55.3617 338.48 65.2933 338.48 77.29C338.48 86.7631 336.151 95.0099 331.491 102.03H368.669ZM653.814 102.03C652.565 74.2666 642.876 50.6798 624.748 31.27C605.475 10.4233 579.613 0 547.163 0C514.713 0 488.753 10.4233 469.283 31.27C451.338 50.6798 441.747 74.2666 440.51 102.03H476.185C477.106 82.5617 483.262 66.1533 494.653 52.805C507.436 37.8583 524.94 30.385 547.163 30.385C569.386 30.385 586.791 37.8583 599.378 52.805C610.946 66.1533 617.2 82.5617 618.138 102.03H653.814ZM1069.36 102.03H950.181V5.01499H1069.36V35.4H984.106V93.81H1069.36V102.03ZM848.638 102.03H813.635L843.917 5.01499H880.792L848.638 102.03ZM778.619 102.03H743.616L711.462 5.01499H748.337L778.619 102.03Z" fill="black"/>
</svg>
