<svg width="529" height="564" viewBox="0 0 529 564" fill="none" xmlns="http://www.w3.org/2000/svg">
<path d="M2.31076 12.5398L11.6641 2.29883L21.0175 12.5398L21.4636 13.0282H22.1251H24.1417H24.8031L25.2492 12.5398L34.6026 2.29883L43.956 12.5398L44.4021 13.0282H45.0635H47.0784H47.7399L48.186 12.5398L57.5394 2.29883L66.8927 12.5398L67.3388 13.0282H68.0003H70.0172H70.6786L71.1247 12.5398L80.4781 2.29883L89.8315 12.5398L90.2776 13.0282H90.939H92.9538H93.6153L94.0614 12.5398L103.415 2.29883L112.768 12.5398L113.214 13.0282H113.876H115.892H116.554L117 12.5398L126.353 2.29883L135.707 12.5398L136.153 13.0282H136.814H138.829H139.491L139.937 12.5398L149.29 2.29884L158.644 12.5398L159.09 13.0282H159.751H161.768H162.43L162.876 12.5398L172.229 2.29884L181.582 12.5398L182.029 13.0282H182.69H184.705H185.366L185.812 12.5398L195.165 2.29884L204.519 12.5398L204.965 13.0282H205.626H207.643H208.304L208.75 12.5398L218.104 2.29884L227.457 12.5398L227.903 13.0282H228.565H230.582H231.243L231.689 12.5398L241.043 2.29884L250.396 12.5398L250.842 13.0282H251.504H253.519H254.18L254.626 12.5398L263.98 2.29884L273.333 12.5398L273.779 13.0282H274.44H276.457H277.119L277.565 12.5398L286.918 2.29884L296.271 12.5398L296.717 13.0282H297.379H299.396H300.057L300.503 12.5398L309.856 2.29887L319.209 12.5397L319.655 13.0282L320.317 13.0282H322.333H322.994L323.44 12.5398L332.794 2.29884L342.147 12.5398L342.593 13.0282H343.254H345.269H345.931L346.377 12.5398L355.73 2.29884L365.084 12.5398L365.53 13.0282H366.191H368.21H368.871L369.317 12.5398L378.67 2.29884L388.024 12.5398L388.47 13.0282H389.131H391.146H391.808L392.254 12.5398L401.607 2.29885L410.96 12.5397L411.406 13.0282H412.068H414.084H414.745L415.191 12.5398L424.544 2.29884L433.898 12.5398L434.344 13.0282H435.005H437.022H437.683L438.129 12.5398L447.482 2.29884L456.836 12.5398L457.282 13.0282H457.943H459.96H460.622L461.068 12.5398L470.421 2.29884L479.775 12.5398L480.221 13.0282H480.882H482.897H483.559L484.005 12.5398L493.358 2.29884L502.711 12.5398L503.157 13.0282H503.819H505.836H506.497L506.943 12.5398L516.296 2.29881L525.65 12.5398L526.096 13.0282H526.695V562.028H1.69531L1.69531 13.0282H1.86467L2.31076 12.5398Z" fill="#ACE2DF" stroke="black" stroke-width="3"/>
</svg>
