<svg width="76" height="80" viewBox="0 0 76 80" fill="none" xmlns="http://www.w3.org/2000/svg">
<path fill-rule="evenodd" clip-rule="evenodd" d="M20.9783 23.0782L22.4742 18.0251L14.747 8.56597L6.23541 18.1376L20.9783 23.0782Z" fill="#8481E2"/>
<path fill-rule="evenodd" clip-rule="evenodd" d="M14.747 8.56597L22.4742 18.0251L27.2611 8.26807L14.747 8.56597Z" fill="#B5B3EE"/>
<path fill-rule="evenodd" clip-rule="evenodd" d="M27.2611 8.26807L22.4742 18.0251L20.9783 23.0782L28.764 25.6874L31.4844 17.6099L27.2611 8.26807Z" fill="#9D9AE8"/>
<path fill-rule="evenodd" clip-rule="evenodd" d="M27.2611 8.26807L31.4844 17.6099L42.2523 13.2038L38.8665 1.58865L27.2611 8.26807Z" fill="#B5B3EE"/>
<path fill-rule="evenodd" clip-rule="evenodd" d="M31.4844 17.6099L28.764 25.6874L36.5498 28.2965L39.2161 23.4595L31.4844 17.6099Z" fill="#8481E2"/>
<path fill-rule="evenodd" clip-rule="evenodd" d="M31.4844 17.6099L39.2161 23.4595L49.3945 21.322L42.2523 13.2038L31.4844 17.6099Z" fill="#8481E2"/>
<path fill-rule="evenodd" clip-rule="evenodd" d="M38.8665 1.58865L42.2523 13.2038L50.4597 8.29216L38.8665 1.58865Z" fill="#B5B3EE"/>
<path fill-rule="evenodd" clip-rule="evenodd" d="M50.4597 8.29216L42.2523 13.2038L49.3945 21.322L54.878 16.9947L50.4597 8.29216Z" fill="#9D9AE8"/>
<path fill-rule="evenodd" clip-rule="evenodd" d="M49.3945 21.322L39.2161 23.4595L36.5498 28.2965L50.3244 32.9127L49.3945 21.322Z" fill="#9D9AE8"/>
<path fill-rule="evenodd" clip-rule="evenodd" d="M49.3945 21.322L50.3244 32.9127L64.5791 19.8053L54.878 16.9947L49.3945 21.322Z" fill="#B5B3EE"/>
<path fill-rule="evenodd" clip-rule="evenodd" d="M64.5791 19.8053L50.3244 32.9127L67.248 27.7453L64.5791 19.8053Z" fill="#9D9AE8"/>
<path fill-rule="evenodd" clip-rule="evenodd" d="M67.248 27.7453L50.3244 32.9127L64.3288 37.6058L67.248 27.7453Z" fill="#8481E2"/>
<path fill-rule="evenodd" clip-rule="evenodd" d="M67.248 27.7453L64.3288 37.6058L73.4621 40.6666L73.7654 33.8047L67.248 27.7453Z" fill="#8481E2"/>
<path fill-rule="evenodd" clip-rule="evenodd" d="M73.4621 40.6666L64.3288 37.6058L50.3244 32.9127L36.5498 28.2965L28.764 25.6874L20.9783 23.0782L6.23541 18.1376C5.45205 17.8751 4.60924 18.3422 4.3625 19.1757L3.24095 22.9641C2.9942 23.7976 3.43326 24.6943 4.21662 24.9568L71.4433 47.4857C72.2266 47.7482 73.0695 47.2811 73.3162 46.4477L74.4377 42.6592C74.6845 41.8258 74.2454 40.9291 73.4621 40.6666Z" fill="#8690AF"/>
<path d="M74.995 39.8081L75.2571 33.8794C75.2784 33.3953 75.091 32.9272 74.748 32.6084L68.5232 26.8211L65.9852 19.2701C65.8207 18.7812 65.4423 18.4104 64.9714 18.2722L55.8877 15.6407L51.7734 7.53695C51.6358 7.26579 51.427 7.04326 51.1727 6.89606L39.5794 0.192697C39.1352 -0.0637575 38.6001 -0.0641984 38.1558 0.191176L26.8674 6.68817L14.7136 6.97769C14.315 6.9872 13.9364 7.16599 13.6623 7.47423L5.65175 16.4824C4.43548 16.5425 3.32477 17.3926 2.93819 18.6984L1.8166 22.487C1.3219 24.158 2.19728 25.9458 3.76799 26.4722L4.04986 26.5666L2.10908 50.3882C1.36638 51.3237 0.781581 52.4264 0.414743 53.6656C-1.06947 58.679 1.55665 64.0425 6.26878 65.6216C10.4955 67.0381 14.985 64.9345 16.9367 60.8683L41.6757 69.1588C41.0847 73.681 43.6307 78.1423 47.8573 79.5587C52.5694 81.1379 57.6106 78.3438 59.0948 73.3304C59.4616 72.0912 59.5765 70.831 59.4716 69.6115L70.7128 48.9067L70.9946 49.0011C72.5654 49.5275 74.2457 48.5961 74.7404 46.9251L75.862 43.1366C76.2262 41.9064 75.8463 40.6149 74.995 39.8081ZM72.0615 38.5315L66.2017 36.5678L67.9858 30.5413L72.2398 34.4963L72.0615 38.5315ZM37.9786 3.90613L40.412 12.2547L32.2333 15.6013L29.2239 8.94487L37.9786 3.90613ZM52.9493 16.5388L49.5747 19.2019L44.6429 13.5962L49.8679 10.4693L52.9493 16.5388ZM61.4809 20.5542L51.5634 29.6737L50.9533 22.07L55.1853 18.7303L61.4809 20.5542ZM39.5575 21.7683L34.6169 18.0303L41.8495 15.0709L46.4656 20.3177L39.5575 21.7683ZM43.1311 10.855L41.3807 4.85086L47.3737 8.31608L43.1311 10.855ZM22.1641 15.2237L17.9611 10.0787L24.7677 9.91659L22.1641 15.2237ZM23.8591 18.6361L27.2066 11.8128L29.8681 17.6997L27.8428 23.713L22.8513 22.0402L23.8591 18.6361ZM32.2252 20.1199L37.2361 23.9111L35.8637 26.4009L30.6933 24.6683L32.2252 20.1199ZM40.1643 24.8798L48.0484 23.2241L48.647 30.6849L38.786 27.3803L40.1643 24.8798ZM63.3531 35.6132L55.5062 32.9835L64.9888 30.0881L63.3531 35.6132ZM65.3058 26.6855L56.4347 29.3941L63.9069 22.5232L65.3058 26.6855ZM14.7001 10.9304L20.7989 18.3961L20.0027 21.0856L8.96033 17.3851L14.7001 10.9304ZM73.0025 42.1783C73.0059 42.1794 73.009 42.181 73.0123 42.1821L73.0133 42.1824L71.8919 45.9704L70.4948 45.5022C70.4901 45.5005 70.4855 45.4991 70.4808 45.4975L6.07025 23.9125C6.06854 23.9119 6.06697 23.9114 6.06527 23.9108L4.66518 23.4416L5.7865 19.6529L73.0025 42.1783ZM7.16602 62.5909C4.0246 61.5381 2.27385 57.9625 3.26333 54.6202C4.25281 51.2779 7.61357 49.4152 10.755 50.4679C13.8964 51.5207 15.6472 55.0963 14.6577 58.4386C13.6682 61.7809 10.3074 63.6436 7.16602 62.5909ZM48.7545 76.528C45.6131 75.4752 43.8624 71.8996 44.8518 68.5573C45.8413 65.215 49.2021 63.3523 52.3435 64.405C55.4849 65.4578 57.2357 69.0334 56.2462 72.3757C55.2567 75.718 51.896 77.5807 48.7545 76.528ZM58.223 65.5588C57.1355 63.6313 55.4101 62.1013 53.2408 61.3743C49.014 59.9578 44.5244 62.0615 42.5728 66.128L17.8339 57.8375C18.4251 53.315 15.879 48.8536 11.6522 47.4372C9.48303 46.7102 7.24478 46.9119 5.31528 47.8286L6.43943 34.0306L13.2437 36.3109C14.0302 36.5744 14.8689 36.1096 15.1166 35.2728C15.3644 34.436 14.9274 33.5437 14.1409 33.2801L6.70357 30.7877L6.96781 27.5445L67.7948 47.9288L58.223 65.5588Z" fill="black"/>
<path d="M9.40966 55.0143L9.40852 55.014C8.62203 54.7504 7.7839 55.2154 7.53618 56.0522C7.28845 56.889 7.72578 57.7815 8.51242 58.0451C9.29906 58.3087 10.1376 57.8438 10.3853 57.007C10.6331 56.1702 10.1962 55.2779 9.40966 55.0143Z" fill="black"/>
<path d="M50.9982 68.9514L50.997 68.9511C50.2105 68.6875 49.3724 69.1525 49.1247 69.9893C48.877 70.8261 49.3143 71.7186 50.1009 71.9822C50.8876 72.2458 51.7261 71.7809 51.9739 70.9441C52.2216 70.1073 51.7847 69.215 50.9982 68.9514Z" fill="black"/>
<path d="M19.6526 38.4586L19.6536 38.4589C20.4401 38.7225 21.2784 38.2575 21.5261 37.4207C21.7738 36.5839 21.3365 35.6914 20.5499 35.4278C19.7632 35.1642 18.9247 35.6291 18.6769 36.4659C18.4292 37.3027 18.8661 38.195 19.6526 38.4586Z" fill="black"/>
</svg>
