<svg width="90" height="90" viewBox="0 0 90 90" fill="none" xmlns="http://www.w3.org/2000/svg">
<path fill-rule="evenodd" clip-rule="evenodd" d="M3.46209 86.5383C8.90845 87.3257 16.2731 85.786 21.9286 82.9408C27.6689 80.0559 31.6502 74.4751 31.8097 69.0837L20.9171 58.1865C15.5207 58.3509 9.93982 62.3272 7.05473 68.0723C4.21447 73.7226 2.67472 81.0921 3.46209 86.5383Z" fill="#EF724F"/>
<path fill-rule="evenodd" clip-rule="evenodd" d="M66.5601 2.71876C69.4702 12.1261 77.8712 20.5319 87.2789 23.4369C87.523 22.2063 87.7124 20.9556 87.852 19.69C88.2605 15.9678 88.3552 12.1113 88.1061 8.13002C87.8221 3.61067 86.3871 2.17559 81.8726 1.8917C77.8863 1.64754 74.0295 1.73719 70.3073 2.14588C69.0416 2.28528 67.7959 2.47952 66.5601 2.71876Z" fill="#EF724F"/>
<path d="M89.8605 8.01963C89.5206 2.61346 87.3856 0.477013 81.9798 0.137051C77.9408 -0.11045 73.949 -0.0223829 70.1144 0.398439C63.7144 1.10367 57.433 3.15013 51.4445 6.48084C46.1622 9.41885 41.0786 13.3731 36.3236 18.2341C18.7663 14.857 8.95574 24.4373 0.413688 34.5715C-0.07466 35.151 -0.136714 35.9784 0.259871 36.6242C0.656281 37.2701 1.42168 37.5887 2.16035 37.4156C7.38399 36.1874 15.0692 37.2491 19.7353 41.4934C17.5809 45.6186 15.8756 49.4925 14.5628 52.8232C14.3063 53.4743 14.4603 54.2156 14.9551 54.7106L35.2852 75.045C35.6214 75.3811 36.0709 75.5601 36.5288 75.5601C36.7454 75.5601 36.9639 75.52 37.1731 75.4375C40.505 74.1243 44.38 72.4187 48.5067 70.2636C52.7543 74.9306 53.8138 82.6161 52.5817 87.8386C52.4075 88.5765 52.7262 89.3431 53.3724 89.74C53.656 89.9144 53.9749 90 54.2922 90C54.6975 90 55.1008 89.8601 55.4258 89.586C65.5597 81.0401 75.1403 71.2267 71.763 53.6768C76.6243 48.9216 80.5786 43.8376 83.5168 38.5547C86.8475 32.5656 88.8941 26.2833 89.5995 19.8817C90.0235 16.0188 90.1114 12.028 89.8605 8.01963ZM6.07171 33.4229C13.0592 25.7101 20.9217 19.7163 33.4456 21.3303C28.5438 26.8713 24.5927 32.7558 21.4519 38.3298C17.1838 34.8133 11.3013 33.3211 6.07171 33.4229ZM36.9517 71.7396L18.2611 53.0449C18.9996 51.2275 19.8017 49.3962 20.6638 47.5638L42.4361 69.3356C40.6026 70.198 38.7701 71.0006 36.9517 71.7396ZM56.5767 83.9245C56.682 78.6978 55.1887 72.8151 51.6702 68.5467C57.2435 65.4062 63.1267 61.4557 68.6668 56.5549C70.28 69.0716 64.2877 76.9349 56.5767 83.9245ZM86.1048 19.4973C83.7188 41.1496 65.1337 57.7926 45.7708 67.6982L35.2773 57.2049L45.5348 46.9477C46.2212 46.2613 46.2212 45.1482 45.5348 44.4618C44.8485 43.7754 43.7352 43.7754 43.0487 44.4618L32.7913 54.719L22.3009 44.2289C32.2063 24.8655 48.8489 6.27886 70.4992 3.89315C74.1344 3.49395 77.9248 3.41099 81.7622 3.64601C85.3939 3.87452 86.1232 4.60437 86.3518 8.23971C86.59 12.047 86.5068 15.8349 86.1048 19.4973Z" fill="black"/>
<path d="M59.6167 17.4811C56.1715 17.4811 52.9313 18.8239 50.4931 21.262C45.4637 26.2913 45.4637 34.4743 50.4938 39.5041C53.0091 42.0163 56.3125 43.2723 59.6163 43.2723C62.9202 43.2723 66.2245 42.016 68.7401 39.5034C73.7693 34.4743 73.7693 26.2913 68.7401 21.2621C66.3017 18.8239 63.0617 17.4811 59.6167 17.4811ZM66.2546 37.0168C62.5942 40.6728 56.6386 40.6727 52.9793 37.0175C49.3206 33.3591 49.3206 27.4064 52.9793 23.7479C54.7536 21.9737 57.1108 20.9965 59.6167 20.9965C62.1224 20.9965 64.4796 21.9737 66.2539 23.7479C69.9124 27.4066 69.9124 33.3593 66.2546 37.0168Z" fill="black"/>
</svg>
