<svg width="980" height="770" viewBox="0 0 980 770" fill="none" xmlns="http://www.w3.org/2000/svg">
<g filter="url(#filter0_d_233_503)">
<path d="M500 0L596.902 92.4667L740 50.2405L764.741 168.171L915.692 187.5L861.643 299.295L980 375L861.643 450.705L915.692 562.5L764.741 581.829L740 699.76L596.902 657.533L500 750L403.098 657.533L260 699.76L235.259 581.829L84.3078 562.5L138.357 450.705L20 375L138.357 299.295L84.3078 187.5L235.259 168.171L260 50.2405L403.098 92.4667L500 0Z" fill="white"/>
<path d="M597.326 93.9054L738.866 52.1391L763.273 168.479L763.492 169.524L764.55 169.659L913.435 188.723L860.292 298.643L859.712 299.841L860.834 300.559L977.216 375L860.834 449.441L859.712 450.159L860.292 451.357L913.435 561.277L764.55 580.341L763.492 580.476L763.273 581.521L738.866 697.861L597.326 656.095L596.494 655.849L595.866 656.448L500 747.927L404.134 656.448L403.506 655.849L402.674 656.095L261.134 697.861L236.727 581.521L236.508 580.476L235.45 580.341L86.5653 561.277L139.708 451.357L140.287 450.159L139.166 449.441L22.7838 375L139.166 300.559L140.287 299.841L139.708 298.643L86.5653 188.723L235.45 169.659L236.508 169.524L236.727 168.479L261.134 52.1391L402.674 93.9054L403.506 94.151L404.134 93.5519L500 2.07333L595.866 93.5519L596.494 94.151L597.326 93.9054Z" stroke="black" stroke-width="3"/>
</g>
<defs>
<filter id="filter0_d_233_503" x="0" y="0" width="980" height="770" filterUnits="userSpaceOnUse" color-interpolation-filters="sRGB">
<feFlood flood-opacity="0" result="BackgroundImageFix"/>
<feColorMatrix in="SourceAlpha" type="matrix" values="0 0 0 0 0 0 0 0 0 0 0 0 0 0 0 0 0 0 127 0" result="hardAlpha"/>
<feOffset dx="-20" dy="20"/>
<feComposite in2="hardAlpha" operator="out"/>
<feColorMatrix type="matrix" values="0 0 0 0 0 0 0 0 0 0 0 0 0 0 0 0 0 0 1 0"/>
<feBlend mode="normal" in2="BackgroundImageFix" result="effect1_dropShadow_233_503"/>
<feBlend mode="normal" in="SourceGraphic" in2="effect1_dropShadow_233_503" result="shape"/>
</filter>
</defs>
</svg>
