<svg width="20" height="20" viewBox="0 0 20 20" fill="none" xmlns="http://www.w3.org/2000/svg">
<g id="Layer 2">
<g id="Layer 1">
<g id="Toncoin TON">
<path id="Vector" d="M19.7 12.4218C19.2238 14.3421 18.1889 16.078 16.726 17.4098C15.2632 18.7416 13.4382 19.6095 11.4821 19.9037C9.52593 20.1978 7.52649 19.905 5.73676 19.0623C3.94703 18.2196 2.44746 16.8649 1.42778 15.1695C0.408103 13.4742 -0.0858449 11.5144 0.00843619 9.53822C0.102717 7.56201 0.780991 5.65819 1.95743 4.06764C3.13387 2.4771 4.75561 1.27132 6.61743 0.602873C8.47925 -0.0655694 10.4975 -0.166632 12.4167 0.312474C14.987 0.954095 17.1977 2.5897 18.5632 4.86012C19.9288 7.13055 20.3376 9.85019 19.7 12.4218Z" fill="#0089CD"/>
<g id="Group" opacity="0.24">
<path id="Vector_2" d="M9.99848 20C9.18267 19.9943 8.37059 19.8893 7.5801 19.6875C5.01406 19.0424 2.8083 17.4063 1.44607 15.1377C0.0838368 12.8691 -0.323791 10.153 0.31249 7.58439C0.791374 5.66607 1.8281 3.93278 3.29163 2.60359C4.75517 1.2744 6.57983 0.408966 8.53501 0.116663C10.4902 -0.17564 12.4881 0.11831 14.2763 0.961361C16.0645 1.80441 17.5627 3.15872 18.5815 4.85314C19.4927 6.37131 19.9846 8.10425 20.0067 9.87483C20.0289 11.6454 19.5806 13.3901 18.7077 14.9306C17.8347 16.4712 16.5684 17.7522 15.0383 18.6429C13.5081 19.5336 11.7689 20.0019 9.99848 20ZM9.99848 1.87501C8.18641 1.87642 6.42684 2.48372 4.99956 3.60035C3.57229 4.71698 2.55927 6.27882 2.12158 8.03751C1.82431 9.08518 1.74065 10.1819 1.87558 11.2626C2.01051 12.3432 2.36128 13.3857 2.90703 14.3281C3.45278 15.2704 4.18239 16.0935 5.05247 16.7482C5.92256 17.403 6.91538 17.8761 7.97192 18.1395C9.02846 18.4029 10.1272 18.4512 11.2027 18.2815C12.2783 18.1117 13.3088 17.7275 14.2329 17.1516C15.157 16.5756 15.956 15.8198 16.5823 14.9289C17.2085 14.038 17.6493 13.0303 17.8785 11.9656C18.3991 9.87543 18.0685 7.66401 16.9594 5.81753C15.8502 3.97104 14.0534 2.64063 11.9638 2.11876C11.3209 1.9586 10.661 1.87675 9.99848 1.87501Z" fill="white"/>
</g>
<g id="Group_2" opacity="0.3">
<path id="Vector_3" d="M19.4 6.60314L0.128007 11.6031C-0.269933 9.14432 0.263934 6.62548 1.62512 4.53962C2.9863 2.45377 5.0768 0.951062 7.48744 0.325635C9.89809 -0.299792 12.4553 -0.00291748 14.6586 1.15815C16.862 2.31922 18.5527 4.2609 19.4 6.60314Z" fill="white"/>
</g>
<path id="Vector_4" d="M17.8784 11.9656C17.49 13.5252 16.6479 14.9344 15.4585 16.0152C14.2692 17.096 12.7861 17.7997 11.1969 18.0374C9.60764 18.275 7.98361 18.036 6.53022 17.3504C5.07684 16.6648 3.85938 15.5636 3.03186 14.1859C2.20433 12.8082 1.80391 11.216 1.88124 9.61072C1.95857 8.00541 2.51017 6.45909 3.46629 5.16736C4.4224 3.87563 5.74006 2.89652 7.25261 2.35387C8.76517 1.81121 10.4047 1.72939 11.9637 2.11876C14.0533 2.64063 15.8501 3.97105 16.9593 5.81753C18.0684 7.66402 18.399 9.87544 17.8784 11.9656Z" fill="#0089CD"/>
<path id="Vector_5" fill-rule="evenodd" clip-rule="evenodd" d="M14.4853 6.7781C14.3675 6.55644 14.1781 6.38127 13.9479 6.28123C13.7399 6.17803 13.5114 6.12252 13.2793 6.11873H6.77714C6.53193 6.10259 6.2874 6.15911 6.07413 6.28123C5.93879 6.32523 5.8137 6.39605 5.70633 6.48948C5.59896 6.5829 5.51152 6.697 5.44923 6.82498C5.30806 7.06195 5.24672 7.33801 5.27425 7.61248C5.29361 7.86642 5.38342 8.10992 5.53359 8.3156L9.57046 15.3562C9.62081 15.4293 9.68793 15.4893 9.7662 15.5312C9.84448 15.573 9.93163 15.5956 10.0204 15.5969C10.1119 15.6044 10.2036 15.5858 10.2849 15.5432C10.3663 15.5006 10.4338 15.4357 10.4797 15.3562L14.5416 8.3156C14.6822 8.09274 14.751 7.83199 14.7384 7.56873C14.7214 7.28817 14.6344 7.01634 14.4853 6.7781ZM9.50797 13.1594L6.40533 7.7406L6.28347 7.49998C6.27051 7.42555 6.28494 7.34895 6.32409 7.28435C6.35639 7.21094 6.41568 7.15276 6.48969 7.12185H9.50797V13.1594ZM13.6511 7.53435C13.6699 7.61768 13.6699 7.70415 13.6511 7.78748L10.4797 13.1844V7.14998H13.2355C13.3335 7.1394 13.4326 7.15447 13.523 7.19373L13.5667 7.23748C13.6104 7.23748 13.6104 7.3156 13.6511 7.3156C13.673 7.3826 13.673 7.45485 13.6511 7.52185V7.53435Z" fill="white"/>
</g>
</g>
</g>
</svg>
